<?xml version="1.0" encoding="utf-8"?>
<!-- Generator: Adobe Illustrator 26.5.0, SVG Export Plug-In . SVG Version: 6.00 Build 0)  -->
<svg version="1.1" id="Capa_1" xmlns="http://www.w3.org/2000/svg" xmlns:xlink="http://www.w3.org/1999/xlink" x="0px" y="0px"
	 viewBox="0 0 300 400" style="enable-background:new 0 0 300 400;" xml:space="preserve">
<style type="text/css">
	.st0{fill:#4CC9F0;stroke:#000000;stroke-width:5;stroke-miterlimit:10;}
</style>
<polygon class="st0" points="3.7,281.4 33.2,258.6 49.7,141 69,106.6 91,138.3 97.2,172 101.3,200 118.5,200 128.9,213.2 
	128.9,86.7 155.7,38.5 167.4,38.5 179.1,68.1 186.6,73.6 192.1,134.8 197,147.9 205.9,153.4 209.3,123.8 232,96.3 240.3,55 
	252.7,70.2 267.8,43.3 276.1,42 287.1,64.7 291.2,134.8 300,165.1 300,274.5 278.1,288.9 264.4,317.1 233.4,330.9 205.9,308.2 
	166.7,317.1 124,313 109.6,293.7 45.6,308.9 3.7,301.3 "/>
<g>
	<g>
		<path d="M148.7,247.8l3.2-4.6c3,3.9,7.2,6.5,11.5,6.5c5.5,0,8.7-3.4,8.7-8.5c0-5.4-3-7.1-7-9.3l-6-3.3c-3.9-2.1-8.5-5.8-8.5-13.5
			c0-8,5.6-14,13.2-14c5,0,9.4,2.7,12.3,6.5l-2.8,4.3c-2.6-3-5.6-4.9-9.5-4.9c-4.7,0-7.8,3-7.8,7.7c0,5.1,3.6,7,6.9,8.7l6,3.2
			c4.8,2.6,8.6,6.2,8.6,14.1c0,8.3-5.5,14.9-14.3,14.9C157.5,255.7,152.4,252.6,148.7,247.8z"/>
		<path d="M182.8,247.8l3.2-4.6c3,3.9,7.2,6.5,11.5,6.5c5.5,0,8.7-3.4,8.7-8.5c0-5.4-3-7.1-7-9.3l-6-3.3c-3.9-2.1-8.5-5.8-8.5-13.5
			c0-8,5.6-14,13.2-14c5,0,9.4,2.7,12.3,6.5l-2.8,4.3c-2.6-3-5.6-4.9-9.5-4.9c-4.7,0-7.8,3-7.8,7.7c0,5.1,3.6,7,6.9,8.7l6,3.2
			c4.8,2.6,8.6,6.2,8.6,14.1c0,8.3-5.5,14.9-14.3,14.9C191.6,255.7,186.4,252.6,182.8,247.8z"/>
		<path d="M217.4,228.4c0-17,8-27.3,18.6-27.3c5.1,0,9.1,3.1,11.5,6.5l-2.9,4.4c-2.2-3-5-5-8.5-5c-7.9,0-13.2,8.1-13.2,21.2
			c0,13.2,5,21.5,13,21.5c4,0,7-2.2,9.7-5.9l2.9,4.2c-3.3,4.8-7.4,7.6-12.8,7.6C225.3,255.7,217.4,245.5,217.4,228.4z"/>
		<path d="M253.9,228.4c0-17,8-27.3,18.6-27.3c5.1,0,9.1,3.1,11.5,6.5l-3,4.4c-2.2-3-5-5-8.5-5c-7.9,0-13.2,8.1-13.2,21.2
			c0,13.2,5,21.5,13,21.5c4,0,7-2.2,9.7-5.9l2.9,4.2c-3.3,4.8-7.4,7.6-12.8,7.6C261.7,255.7,253.9,245.5,253.9,228.4z"/>
	</g>
</g>
</svg>
