<svg width="190" height="45" viewBox="0 0 190 45" fill="none" xmlns="http://www.w3.org/2000/svg">
<g clip-path="url(#clip0_94_1075)">
<path d="M94.4954 5.73071H92.4764C92.4764 5.73071 92.3364 5.73071 92.3364 5.58199V5.44318L94.0656 2.4291C94.0656 2.2903 94.2155 2.2903 94.2155 2.2903L96.9542 3.15288C97.1042 3.29169 97.1042 3.29169 97.2441 3.44041L97.1042 3.58913L94.6453 5.74062C94.6453 5.73071 94.6453 5.73071 94.4954 5.73071Z" fill="#0033A0"/>
<path d="M95.3649 19.6411V7.01961C95.3649 6.8808 95.215 6.73208 95.075 6.59328H92.0464C91.8965 6.59328 91.7566 6.8808 91.7566 7.01961V19.6411C91.7566 19.7799 91.8965 19.9286 92.0464 20.0674H95.075C95.215 19.9187 95.3649 19.7799 95.3649 19.6411Z" fill="#0033A0"/>
<path d="M116.025 19.6411V7.01961C116.025 6.8808 115.895 6.73208 115.605 6.59328H112.707C112.567 6.59328 112.417 6.8808 112.417 7.01961V19.6411C112.417 19.7799 112.567 19.9286 112.707 20.0674H115.735C115.885 19.9187 116.025 19.7799 116.025 19.6411Z" fill="#0033A0"/>
<path d="M109.668 19.9187C109.958 19.9187 110.098 19.7799 110.098 19.6311V7.01961C110.098 6.8808 109.948 6.59328 109.668 6.59328H106.919C106.63 6.59328 106.49 6.8808 106.49 7.01961V13.7616L101.282 6.8808C101.142 6.742 100.852 6.59328 100.712 6.59328H97.9637C97.8138 6.59328 97.6738 6.8808 97.6738 7.01961V19.6411C97.6738 19.7799 97.8238 19.9286 97.9637 19.9286H100.852C101.142 19.9286 101.282 19.7898 101.282 19.6411V12.7602C101.282 12.7602 106.63 19.7799 106.78 19.7799C106.919 19.9187 107.069 19.9187 107.219 19.9187H109.668V19.9187Z" fill="#0033A0"/>
<path d="M89.8776 16.7658H83.8104V7.01961C83.8104 6.8808 83.6605 6.73208 83.5206 6.59328H80.6319C80.3421 6.59328 80.2021 6.8808 80.2021 7.01961V19.6411C80.2021 19.7799 80.3521 19.9286 80.492 20.0674H89.8876C90.0275 20.0674 90.1774 19.7799 90.3274 19.6411V17.0533C90.1674 16.9145 90.0175 16.7658 89.8776 16.7658Z" fill="#0033A0"/>
<path d="M130.338 17.3409C130.338 17.1921 130.178 17.0533 130.178 17.0533L128.019 15.4769C127.869 15.3381 127.579 15.4769 127.44 15.6157C127.44 15.6157 127.28 15.7545 127.28 15.9032C126.57 16.4783 125.83 16.9046 124.681 16.9046C122.942 16.9046 121.652 15.3282 121.652 13.3254C121.652 11.3226 122.942 9.74618 124.681 9.74618C125.83 9.74618 126.7 10.3212 127.44 11.0351C127.579 11.1838 127.729 11.1838 128.019 11.0351L130.178 9.45866C130.178 9.30993 130.178 9.30994 130.178 9.17113C130.338 9.02241 130.178 9.02241 130.178 8.8836C129.029 7.44597 127.29 6.44458 124.841 6.44458C120.793 6.44458 117.914 9.44874 117.914 13.3254C117.914 17.3409 120.933 20.2062 124.691 20.2062C127.45 20.2062 129.019 19.2048 130.338 17.6284C130.338 17.4797 130.338 17.3409 130.338 17.3409Z" fill="#0033A0"/>
<path d="M78.6028 17.3409C78.6028 17.1921 78.6028 17.0533 78.4629 17.0533L76.2939 15.4769C76.154 15.3381 75.8641 15.4769 75.7242 15.6157C75.7242 15.6157 75.5743 15.7545 75.5743 15.9032C74.8446 16.4783 74.125 16.9046 72.9755 16.9046C71.2463 16.9046 69.9369 15.3282 69.9369 13.3254C69.9369 11.3226 71.2363 9.74618 72.9755 9.74618C74.125 9.74618 74.9945 10.3212 75.7242 11.0351C75.8641 11.1838 76.0141 11.1838 76.2939 11.0351L78.4629 9.45866C78.4629 9.30993 78.4629 9.30994 78.4629 9.17113C78.6028 9.02241 78.4629 9.02241 78.4629 8.8836C77.3134 7.44597 75.5743 6.44458 73.1154 6.44458C69.0673 6.44458 66.1787 9.44874 66.1787 13.3254C66.1787 17.3409 69.2073 20.2062 72.9655 20.2062C75.7142 20.2062 77.3034 19.2048 78.5928 17.6284C78.6028 17.4797 78.6028 17.3409 78.6028 17.3409Z" fill="#0033A0"/>
<path d="M136.555 14.763L138.135 10.8963L139.574 14.763H136.555ZM145.221 19.4923L140.024 6.8808C139.864 6.742 139.584 6.59328 139.444 6.59328H136.845C136.555 6.59328 136.406 6.742 136.266 6.8808L130.908 19.4923C130.758 19.7799 130.908 19.9187 131.198 19.9187H134.087C134.376 19.9187 134.666 19.7799 134.666 19.4923L135.526 17.6284H140.594L141.453 19.4923C141.453 19.7799 141.743 19.9187 142.033 19.9187H144.931C145.221 19.9187 145.361 19.7799 145.221 19.4923Z" fill="#0033A0"/>
<path d="M132.647 31.2413V31.0925C132.647 29.2286 131.338 27.5133 129.309 27.5133C127.29 27.5133 126 29.2385 126 31.0925C126 33.0953 127.29 34.6817 129.309 34.6817C131.338 34.6817 132.647 33.1052 132.647 31.2413ZM122.242 31.2413V31.0925C122.242 27.3646 125.271 24.2216 129.309 24.2216C133.357 24.2216 136.405 27.2258 136.405 31.0925C136.405 34.9593 133.357 38.1122 129.309 38.1122C125.271 38.1221 122.242 34.9692 122.242 31.2413Z" fill="#0033A0"/>
<path d="M161.693 31.2413C161.693 33.3928 160.094 34.533 157.935 34.533H156.486V27.8009H157.935C160.094 27.8009 161.693 28.951 161.693 31.0926V31.2413ZM157.935 24.5092H153.157C153.017 24.5092 152.867 24.6579 152.867 24.9355V37.4083C152.867 37.6958 153.017 37.8346 153.157 37.8346H157.775C162.553 37.8346 165.441 34.9692 165.441 31.1025C165.441 27.2259 162.693 24.5092 157.935 24.5092Z" fill="#0033A0"/>
<path d="M177.456 34.6817H170.659V32.5302H176.726C176.876 32.5302 177.016 32.3914 177.016 32.2427V30.0912C177.016 29.8037 176.876 29.6649 176.726 29.6649H170.659V27.6522H177.296C177.586 27.6522 177.736 27.5134 177.736 27.2258V24.9355C177.736 24.648 177.586 24.5092 177.296 24.5092H167.471C167.321 24.5092 167.031 24.6579 167.031 24.9355V37.4083C167.031 37.6958 167.321 37.8346 167.471 37.8346H177.456C177.586 37.8346 177.876 37.6958 177.876 37.4083V35.118C177.876 34.8304 177.586 34.6817 177.456 34.6817Z" fill="#0033A0"/>
<path d="M150.269 37.8346C150.429 37.8346 150.719 37.6958 150.719 37.4083V24.9355C150.719 24.648 150.429 24.5092 150.269 24.5092H147.38C147.24 24.5092 147.09 24.6579 147.09 24.9355V31.5288L141.753 24.7967C141.603 24.648 141.463 24.5092 141.303 24.5092H138.564C138.404 24.5092 138.125 24.6579 138.125 24.9355V37.4083C138.125 37.6958 138.414 37.8346 138.564 37.8346H141.453C141.593 37.8346 141.743 37.6958 141.743 37.4083V30.5275C141.743 30.5275 147.23 37.5471 147.36 37.5471C147.36 37.6958 147.65 37.8346 147.8 37.8346H150.269Z" fill="#0033A0"/>
<path d="M75.8541 34.533H69.787V24.9256C69.787 24.6381 69.6471 24.4993 69.4971 24.4993H66.4686C66.3186 24.4993 66.1787 24.648 66.1787 24.9256V37.3984C66.1787 37.6859 66.3186 37.8247 66.4686 37.8247H75.8541C76.0041 37.8247 76.144 37.6859 76.144 37.5372V34.9593C76.144 34.6817 76.0041 34.533 75.8541 34.533Z" fill="#0033A0"/>
<path d="M185.092 29.526C183.363 29.0997 182.783 28.8122 182.783 28.2371C182.783 27.8108 183.223 27.2357 184.223 27.2357C185.092 27.3745 186.252 27.6621 187.271 28.2371C187.401 28.2371 187.401 28.3858 187.561 28.3858C187.701 28.5346 187.981 28.5346 188.141 28.2371L189.3 26.6607V26.5219L189.44 26.3731C189.59 26.2343 189.59 26.0856 189.59 26.0856C189.59 25.9468 189.44 25.9468 189.44 25.7981C188.001 24.648 186.422 24.2216 184.243 24.2216C181.214 24.2216 179.195 25.9369 179.195 28.5147C179.195 31.3801 181.504 32.0939 184.103 32.669C185.972 33.0953 186.412 33.5316 186.412 33.9579V34.1066C186.412 34.6817 185.832 34.9692 184.812 34.9692C183.523 34.9692 182.214 34.5429 181.054 33.6803H180.914C180.764 33.5415 180.475 33.5415 180.335 33.6803L178.735 35.5443C178.735 35.6831 178.735 35.6831 178.735 35.8318C178.735 35.9805 178.735 35.9805 178.735 36.1193C180.335 37.4082 182.783 37.9833 184.663 37.9833C187.981 37.9833 190 36.268 190 33.6803V33.5415C190 30.9537 187.701 30.0912 185.092 29.526Z" fill="#0033A0"/>
<path d="M121.383 35.108C121.383 34.9692 121.383 34.9692 121.223 34.8205C121.223 34.8205 119.204 33.2441 119.074 33.2441C118.924 33.2441 118.784 33.2441 118.624 33.3928C118.484 33.3928 118.334 33.6803 118.334 33.6803C117.764 34.2554 116.885 34.6817 115.885 34.6817C114.006 34.6817 112.707 33.1053 112.707 31.0926C112.707 29.2286 114.006 27.6522 115.885 27.6522C117.035 27.6522 117.914 28.0884 118.484 28.9411C118.624 28.9411 118.914 29.0799 119.064 28.9411L121.213 27.2159C121.373 27.2159 121.373 27.0672 121.373 26.9284C121.373 26.9284 121.373 26.7896 121.213 26.6409C120.053 25.2032 118.474 24.2018 115.885 24.2018C111.837 24.2018 108.948 27.206 108.948 31.0727V31.2215C108.948 35.0882 111.977 38.1023 115.735 38.1023C118.494 38.1023 120.223 36.9522 121.383 35.3757C121.383 35.2567 121.513 35.2567 121.383 35.108Z" fill="#0033A0"/>
<path d="M82.361 32.5302L83.9502 28.8023L85.3995 32.5302H82.361ZM91.1768 37.2595L85.8293 24.7967C85.6894 24.5092 85.3995 24.3704 85.2496 24.3704H82.6508C82.361 24.3704 82.221 24.5092 82.0711 24.7967L76.7237 37.2595C76.5837 37.5471 76.7237 37.8346 77.0135 37.8346H79.9021C80.192 37.8346 80.4819 37.5471 80.4819 37.4082L81.3515 35.4055H86.4091L87.2786 37.4082C87.2786 37.5471 87.5685 37.8346 87.8584 37.8346H90.747C91.0269 37.8346 91.1768 37.5471 91.1768 37.2595Z" fill="#0033A0"/>
<path d="M97.8238 29.526C96.0846 29.0997 95.5149 28.8122 95.5149 28.2371C95.5149 27.8108 95.9447 27.3844 96.9642 27.3844C97.9837 27.3844 98.9832 27.672 100.143 28.2371C100.143 28.3858 100.143 28.3858 100.283 28.3858C100.433 28.5346 100.722 28.5346 100.862 28.2371L102.022 26.6607L102.162 26.5219V26.3731C102.302 26.2343 102.302 26.0856 102.302 26.0856C102.302 25.9468 102.302 25.9468 102.162 25.7981C100.722 24.648 99.1232 24.2216 96.9642 24.2216C93.9256 24.2216 91.9066 25.9369 91.9066 28.5147V28.6535C91.9066 31.3801 94.2155 32.0939 96.8243 32.6591C98.7034 33.0854 99.1332 33.5217 99.1332 33.948V34.0967C99.1332 34.6718 98.5634 34.9593 97.5439 34.9593C96.2445 34.9593 94.9452 34.533 93.7857 33.8092L93.6358 33.6605C93.4958 33.5217 93.206 33.5217 93.056 33.6605L91.4668 35.5244C91.4668 35.6632 91.4668 35.6632 91.4668 35.812C91.4668 35.9607 91.4668 35.9607 91.6067 36.0995C93.056 37.3884 95.5049 37.9635 97.384 37.9635C100.712 38.1023 102.731 36.2482 102.731 33.6605V33.5217C102.731 30.9537 100.423 30.0912 97.8238 29.526Z" fill="#0033A0"/>
<path d="M3.3292 41.7112C9.68619 42.4251 16.9028 29.6747 16.9028 29.6747C16.9028 29.6747 10.5458 29.6747 10.4059 29.6747C8.67667 29.6747 8.52674 28.2371 9.10647 26.8094L13.1546 16.6369H4.04886C4.1888 16.6369 0.000780148 23.0814 0.000780148 32.2526C0.000780148 32.3914 -0.139154 41.4237 3.3292 41.7112Z" fill="#0033A0"/>
<path d="M44.07 34.1067C44.07 29.8037 30.9162 28.8023 30.9162 28.8023L29.1871 33.3829C28.4674 35.2468 26.7282 36.5358 24.6992 36.5358H13.8743L10.5459 44.418H22.97C32.8054 44.4279 44.07 37.4083 44.07 34.1067Z" fill="#B5BD00"/>
<path d="M49.5575 3.44041C43.2005 2.72655 35.9839 15.4769 35.9839 15.4769H42.4908C44.22 15.4769 44.3699 16.7658 43.7902 18.3422L39.7421 28.5147H48.8478C48.7079 28.5147 52.8959 22.0702 52.8959 12.7503C52.8859 12.7503 53.0258 3.72794 49.5575 3.44041Z" fill="#B8C3DD"/>
<path d="M8.67676 10.46C8.67676 14.763 21.9705 15.7644 21.9705 15.7644L23.7096 11.0351C24.4293 9.31984 26.0185 8.03093 28.0476 8.03093H39.0224L42.3408 0H29.7668C20.0914 0 8.67676 7.01962 8.67676 10.46Z" fill="#446DAF"/>
</g>
<defs>
<clipPath id="clip0_94_1075">
<rect width="190" height="44.4279" fill="white"/>
</clipPath>
</defs>
</svg>
