<svg width="1200" height="70" viewBox="0 0 1200 70" fill="none" xmlns="http://www.w3.org/2000/svg">
<path d="M1136.5 7H676.5C660.76 7 648 19.7599 648 35.5C648 51.2401 660.76 64 676.5 64H1136.5C1152.24 64 1165 51.2401 1165 35.5C1165 19.7599 1152.24 7 1136.5 7Z" fill="white"/>
<path d="M288 45C288 37.8203 293.82 32 301 32H621C628.18 32 634 37.8203 634 45C634 52.1797 628.18 58 621 58H301C293.82 58 288 52.1797 288 45Z" fill="black"/>
<path d="M300.158 51.216C301.544 51.216 302.444 50.478 303.074 49.668V51H306.494V41.262H303.074V46.536C303.074 47.598 302.462 48.174 301.652 48.174C300.824 48.174 300.266 47.598 300.266 46.536V41.262H296.846V47.634C296.846 49.848 298.088 51.216 300.158 51.216Z" fill="white"/>
<path d="M312.196 51.216C314.572 51.216 316.174 50.1 316.174 47.958V47.922C316.174 46.032 314.644 45.366 312.718 44.826C311.692 44.52 311.134 44.34 311.134 43.962V43.926C311.134 43.656 311.404 43.458 311.926 43.458C312.7 43.458 313.798 43.8 314.806 44.358L315.976 42.198C314.86 41.478 313.384 41.064 311.962 41.064C309.712 41.064 308.056 42.216 308.056 44.286V44.322C308.056 46.284 309.586 46.932 311.512 47.436C312.538 47.724 313.078 47.886 313.078 48.264V48.3C313.078 48.642 312.808 48.822 312.214 48.822C311.206 48.822 309.982 48.444 308.866 47.706L307.588 49.776C308.938 50.748 310.558 51.216 312.196 51.216Z" fill="white"/>
<path d="M320.362 51.2159C321.64 51.2159 322.558 50.7299 323.224 49.9919V50.9999H326.608V45.4019C326.608 44.0339 326.302 43.0259 325.564 42.3059C324.79 41.5319 323.602 41.1179 321.856 41.1179C320.182 41.1179 319.012 41.4239 317.914 41.8739L318.616 44.2859C319.48 43.9439 320.272 43.7459 321.298 43.7459C322.612 43.7459 323.242 44.3219 323.242 45.3299V45.4919C322.684 45.2939 321.802 45.1139 320.902 45.1139C318.616 45.1139 317.086 46.1579 317.086 48.1739V48.2099C317.086 50.1539 318.508 51.2159 320.362 51.2159ZM321.586 49.0739C320.884 49.0739 320.38 48.6779 320.38 48.0119V47.9759C320.38 47.2559 320.956 46.7699 321.946 46.7699C322.45 46.7699 322.936 46.8779 323.278 47.0219V47.4719C323.278 48.4439 322.576 49.0739 321.586 49.0739Z" fill="white"/>
<path d="M328.348 50.9999H331.768V45.7259C331.768 44.6639 332.38 44.0879 333.208 44.0879C334.018 44.0879 334.576 44.6639 334.576 45.7259V50.9999H337.996V44.6279C337.996 42.4139 336.754 41.0459 334.684 41.0459C333.298 41.0459 332.398 41.8199 331.768 42.6299V41.2619H328.348V50.9999Z" fill="white"/>
<path d="M343.698 51.2159C345.156 51.2159 346.002 50.5139 346.668 49.7039V50.9999H350.088V37.8599H346.668V42.4499C346.02 41.7119 345.156 41.0459 343.68 41.0459C341.376 41.0459 339.396 42.9719 339.396 46.1399V46.1759C339.396 49.2899 341.394 51.2159 343.698 51.2159ZM344.742 48.3539C343.644 48.3539 342.744 47.4359 342.744 46.1399V46.1039C342.744 44.8079 343.644 43.9079 344.742 43.9079C345.84 43.9079 346.722 44.8259 346.722 46.1039V46.1399C346.722 47.4359 345.84 48.3539 344.742 48.3539Z" fill="white"/>
<path d="M356.888 51.2339C360.02 51.2339 362.288 48.9119 362.288 46.1399V46.1039C362.288 43.3319 360.038 41.0459 356.924 41.0459C353.792 41.0459 351.524 43.3679 351.524 46.1399V46.1759C351.524 48.9479 353.774 51.2339 356.888 51.2339ZM356.924 48.3359C355.718 48.3359 354.854 47.3279 354.854 46.1399V46.1039C354.854 44.9339 355.646 43.9439 356.888 43.9439C358.094 43.9439 358.958 44.9519 358.958 46.1399V46.1759C358.958 47.3459 358.166 48.3359 356.924 48.3359Z" fill="white"/>
<path d="M373.549 51.2339C375.493 51.2339 376.843 50.4419 377.779 49.2539L375.889 47.6879C375.187 48.3719 374.539 48.6779 373.729 48.6779C372.667 48.6779 371.893 48.1379 371.623 47.0759H378.139C378.157 46.8419 378.157 46.5899 378.157 46.3739C378.157 43.5119 376.609 41.0459 373.243 41.0459C370.363 41.0459 368.329 43.2959 368.329 46.1399V46.1759C368.329 49.1999 370.489 51.2339 373.549 51.2339ZM371.569 45.3299C371.749 44.2679 372.361 43.5659 373.261 43.5659C374.197 43.5659 374.827 44.2499 374.953 45.3299H371.569Z" fill="white"/>
<path d="M379.695 50.9999H383.115V37.8599H379.695V50.9999Z" fill="white"/>
<path d="M394.71 51.234C396.852 51.234 398.148 50.334 399.048 49.002L396.762 47.346C396.222 47.976 395.7 48.354 394.89 48.354C393.738 48.354 392.946 47.4 392.946 46.14V46.104C392.946 44.916 393.756 43.944 394.854 43.944C395.682 43.944 396.204 44.322 396.672 44.97L398.994 43.242C398.166 41.928 396.834 41.064 394.836 41.064C391.758 41.064 389.616 43.386 389.616 46.14V46.176C389.616 48.93 391.776 51.234 394.71 51.234Z" fill="white"/>
<path d="M403.5 51.216C404.886 51.216 405.786 50.478 406.416 49.668V51H409.836V41.262H406.416V46.536C406.416 47.598 405.804 48.174 404.994 48.174C404.166 48.174 403.608 47.598 403.608 46.536V41.262H400.188V47.634C400.188 49.848 401.43 51.216 403.5 51.216Z" fill="white"/>
<path d="M411.668 53.8799H415.088V49.8119C415.718 50.5499 416.582 51.2159 418.058 51.2159C420.362 51.2159 422.36 49.2899 422.36 46.1219V46.0859C422.36 42.9719 420.362 41.0459 418.04 41.0459C416.582 41.0459 415.754 41.7479 415.088 42.5579V41.2619H411.668V53.8799ZM416.996 48.3539C415.898 48.3539 415.016 47.4359 415.016 46.1399V46.1039C415.016 44.8259 415.898 43.9079 416.996 43.9079C418.112 43.9079 418.994 44.8259 418.994 46.1039V46.1399C418.994 47.4539 418.112 48.3539 416.996 48.3539Z" fill="white"/>
<path d="M428.8 51.2339C431.932 51.2339 434.2 48.9119 434.2 46.1399V46.1039C434.2 43.3319 431.95 41.0459 428.836 41.0459C425.704 41.0459 423.436 43.3679 423.436 46.1399V46.1759C423.436 48.9479 425.686 51.2339 428.8 51.2339ZM428.836 48.3359C427.63 48.3359 426.766 47.3279 426.766 46.1399V46.1039C426.766 44.9339 427.558 43.9439 428.8 43.9439C430.006 43.9439 430.87 44.9519 430.87 46.1399V46.1759C430.87 47.3459 430.078 48.3359 428.836 48.3359ZM427.504 40.3979H429.916L432.562 38.0939L429.376 37.0679L427.504 40.3979Z" fill="white"/>
<path d="M435.645 50.9999H439.065V45.7259C439.065 44.6639 439.677 44.0879 440.505 44.0879C441.315 44.0879 441.873 44.6639 441.873 45.7259V50.9999H445.293V44.6279C445.293 42.4139 444.051 41.0459 441.981 41.0459C440.595 41.0459 439.695 41.8199 439.065 42.6299V41.2619H435.645V50.9999Z" fill="white"/>
<path d="M452.243 50.9999H457.031C461.567 50.9999 464.213 48.2999 464.213 44.6639V44.6279C464.213 40.9919 461.603 38.3999 457.103 38.3999H452.243V50.9999ZM455.735 47.9039V41.4959H457.157C459.245 41.4959 460.631 42.6659 460.631 44.6819V44.7179C460.631 46.7519 459.245 47.9039 457.157 47.9039H455.735Z" fill="white"/>
<path d="M466.007 50.9999H476.231V48.0299H469.463V46.0319H475.511V43.2779H469.463V41.3699H476.141V38.3999H466.007V50.9999Z" fill="white"/>
<path d="M482.963 51.2158C486.023 51.2158 488.057 49.6858 488.057 47.1118V47.0758C488.057 44.7178 486.257 43.7818 483.359 43.1518C481.613 42.7558 481.181 42.5038 481.181 41.9278V41.8918C481.181 41.4418 481.595 41.0818 482.441 41.0818C483.557 41.0818 484.817 41.5138 485.969 42.3238L487.715 39.8578C486.347 38.7598 484.673 38.1838 482.531 38.1838C479.507 38.1838 477.653 39.8758 477.653 42.2158V42.2518C477.653 44.8438 479.723 45.5998 482.405 46.2118C484.115 46.6078 484.529 46.8958 484.529 47.4178V47.4538C484.529 47.9938 484.025 48.3178 483.089 48.3178C481.631 48.3178 480.245 47.7958 479.003 46.8058L477.059 49.1278C478.607 50.5138 480.731 51.2158 482.963 51.2158Z" fill="white"/>
<path d="M489.755 50.9999H493.247V47.3999H494.975C498.107 47.3999 500.393 45.8339 500.393 42.8639V42.8279C500.393 40.0379 498.341 38.3999 495.155 38.3999H489.755V50.9999ZM493.247 44.6639V41.3339H494.885C496.145 41.3339 496.901 41.9099 496.901 42.9899V43.0259C496.901 44.0159 496.145 44.6639 494.903 44.6639H493.247Z" fill="white"/>
<path d="M499.593 50.9998H503.265L504.165 48.7498H509.025L509.943 50.9998H513.687L508.323 38.3098H504.957L499.593 50.9998ZM505.191 46.0318L506.613 42.4498L508.017 46.0318H505.191Z" fill="white"/>
<path d="M520.167 51.2519C522.957 51.2519 524.559 50.046 525.747 48.408L523.119 46.5359C522.363 47.4539 521.589 48.0659 520.275 48.0659C518.511 48.0659 517.269 46.59 517.269 44.7V44.6639C517.269 42.8279 518.511 41.334 520.275 41.334C521.481 41.334 522.309 41.9099 523.029 42.8099L525.657 40.776C524.541 39.228 522.885 38.1479 520.311 38.1479C516.495 38.1479 513.669 41.028 513.669 44.7V44.736C513.669 48.498 516.567 51.2519 520.167 51.2519Z" fill="white"/>
<path d="M527.249 50.9999H530.741V46.2119H535.223V50.9999H538.715V38.3999H535.223V43.1159H530.741V38.3999H527.249V50.9999Z" fill="white"/>
<path d="M547.278 51.2519C551.166 51.2519 554.082 48.318 554.082 44.7V44.6639C554.082 41.0459 551.202 38.1479 547.314 38.1479C543.426 38.1479 540.51 41.082 540.51 44.7V44.736C540.51 48.354 543.39 51.2519 547.278 51.2519ZM547.314 48.1019C545.406 48.1019 544.092 46.518 544.092 44.7V44.6639C544.092 42.8459 545.37 41.298 547.278 41.298C549.204 41.298 550.518 42.882 550.518 44.7V44.736C550.518 46.554 549.24 48.1019 547.314 48.1019Z" fill="white"/>
<path d="M555.901 50.9999H559.393V47.1839H560.887H560.923L563.461 50.9999H567.493L564.487 46.6079C566.053 45.9419 567.079 44.6639 567.079 42.7379V42.7019C567.079 41.4599 566.701 40.4879 565.963 39.7679C565.117 38.9039 563.785 38.3999 561.859 38.3999H555.901V50.9999ZM559.393 44.4479V41.4239H561.679C562.849 41.4239 563.569 41.9279 563.569 42.9179V42.9539C563.569 43.8719 562.885 44.4479 561.697 44.4479H559.393Z" fill="white"/>
<path d="M568.911 50.9999H572.421V38.3999H568.911V50.9999Z" fill="white"/>
<path d="M574.728 50.9999H578.22V47.3999H579.948C583.08 47.3999 585.366 45.8339 585.366 42.8639V42.8279C585.366 40.0379 583.314 38.3999 580.128 38.3999H574.728V50.9999ZM578.22 44.6639V41.3339H579.858C581.118 41.3339 581.874 41.9099 581.874 42.9899V43.0259C581.874 44.0159 581.118 44.6639 579.876 44.6639H578.22Z" fill="white"/>
<path d="M586.839 50.9999H596.433V47.9399H590.331V38.3999H586.839V50.9999Z" fill="white"/>
<path d="M597.931 50.9999H608.155V48.0299H601.387V46.0319H607.435V43.2779H601.387V41.3699H608.065V38.3999H597.931V50.9999Z" fill="white"/>
<path d="M613.573 50.9999H617.082V46.2299L621.87 38.3999H617.965L615.354 42.9899L612.762 38.3999H608.784L613.573 46.2839V50.9999Z" fill="white"/>
<path d="M303.736 26.4206C303.06 26.4206 302.428 26.3044 301.842 26.072C301.267 25.8396 300.765 25.5085 300.336 25.0785C299.919 24.6486 299.592 24.1432 299.355 23.5622C299.118 22.9696 299 22.3131 299 21.5927V21.5578C299 20.8955 299.107 20.2681 299.321 19.6755C299.547 19.0829 299.857 18.5658 300.252 18.1243C300.646 17.6827 301.114 17.3342 301.656 17.0785C302.208 16.8229 302.817 16.6951 303.483 16.6951C304.238 16.6951 304.892 16.8345 305.445 17.1134C305.997 17.3923 306.454 17.7699 306.815 18.2463C307.187 18.7111 307.458 19.2514 307.627 19.8672C307.807 20.4714 307.898 21.1047 307.898 21.767C307.898 21.8716 307.892 21.9819 307.881 22.0981C307.881 22.2143 307.875 22.3363 307.864 22.4642H301.554C301.678 23.0684 301.932 23.5273 302.315 23.8411C302.71 24.1432 303.195 24.2942 303.77 24.2942C304.199 24.2942 304.582 24.2187 304.92 24.0676C305.259 23.9166 305.608 23.6726 305.969 23.3356L307.441 24.6777C307.012 25.2238 306.494 25.6537 305.885 25.9674C305.276 26.2695 304.56 26.4206 303.736 26.4206ZM305.394 20.8084C305.315 20.2158 305.112 19.7394 304.785 19.3792C304.458 19.0074 304.024 18.8215 303.483 18.8215C302.941 18.8215 302.502 19.0016 302.163 19.3618C301.836 19.722 301.622 20.2042 301.52 20.8084H305.394Z" fill="white"/>
<path d="M309.814 16.8694H312.385V18.194C312.532 17.9965 312.689 17.8106 312.859 17.6363C313.039 17.4504 313.236 17.2877 313.451 17.1482C313.665 17.0088 313.902 16.8984 314.161 16.8171C314.42 16.7358 314.714 16.6951 315.041 16.6951C316.022 16.6951 316.777 17.003 317.307 17.6188C317.849 18.2347 318.119 19.0829 318.119 20.1635V26.2114H315.548V21.0001C315.548 20.3726 315.413 19.9021 315.142 19.5883C314.871 19.263 314.488 19.1003 313.992 19.1003C313.496 19.1003 313.101 19.263 312.808 19.5883C312.526 19.9021 312.385 20.3726 312.385 21.0001V26.2114H309.814V16.8694Z" fill="white"/>
<path d="M325.424 16.8694H327.995V18.194C328.142 17.9965 328.3 17.8106 328.469 17.6363C328.649 17.4504 328.847 17.2877 329.061 17.1482C329.275 17.0088 329.512 16.8984 329.772 16.8171C330.042 16.7358 330.341 16.6951 330.668 16.6951C331.266 16.6951 331.779 16.8229 332.207 17.0785C332.647 17.3342 332.985 17.7002 333.222 18.1766C333.617 17.6886 334.057 17.3225 334.542 17.0785C335.027 16.8229 335.579 16.6951 336.199 16.6951C337.158 16.6951 337.908 16.9856 338.449 17.5665C338.99 18.1475 339.261 19.0016 339.261 20.1286V26.2114H336.69V21.0001C336.69 20.3726 336.56 19.9021 336.301 19.5883C336.042 19.263 335.669 19.1003 335.184 19.1003C334.7 19.1003 334.316 19.263 334.034 19.5883C333.764 19.9021 333.628 20.3726 333.628 21.0001V26.2114H331.057V21.0001C331.057 20.3726 330.927 19.9021 330.668 19.5883C330.409 19.263 330.037 19.1003 329.552 19.1003C329.067 19.1003 328.683 19.263 328.401 19.5883C328.131 19.9021 327.995 20.3726 327.995 21.0001V26.2114H325.424V16.8694Z" fill="white"/>
<path d="M341.548 13.488H344.254V15.841H341.548V13.488ZM341.616 16.8693H344.187V26.2113H341.616V16.8693Z" fill="white"/>
<path d="M346.72 13.488H349.291V26.2113H346.72V13.488Z" fill="white"/>
<path d="M356.003 26.4206C355.326 26.4206 354.694 26.3044 354.108 26.072C353.533 25.8396 353.031 25.5085 352.603 25.0785C352.185 24.6486 351.858 24.1432 351.621 23.5622C351.385 22.9696 351.266 22.3131 351.266 21.5927V21.5578C351.266 20.8955 351.373 20.2681 351.588 19.6755C351.813 19.0829 352.123 18.5658 352.518 18.1243C352.913 17.6827 353.381 17.3342 353.922 17.0785C354.474 16.8229 355.083 16.6951 355.749 16.6951C356.504 16.6951 357.158 16.8345 357.711 17.1134C358.264 17.3923 358.72 17.7699 359.081 18.2463C359.453 18.7111 359.724 19.2514 359.893 19.8672C360.074 20.4714 360.164 21.1047 360.164 21.767C360.164 21.8716 360.158 21.9819 360.147 22.0981C360.147 22.2143 360.141 22.3363 360.13 22.4642H353.82C353.944 23.0684 354.198 23.5273 354.582 23.8411C354.976 24.1432 355.461 24.2942 356.036 24.2942C356.465 24.2942 356.848 24.2187 357.187 24.0676C357.525 23.9166 357.874 23.6726 358.235 23.3356L359.707 24.6777C359.278 25.2238 358.76 25.6537 358.151 25.9674C357.542 26.2695 356.826 26.4206 356.003 26.4206ZM357.66 20.8084C357.581 20.2158 357.378 19.7394 357.051 19.3792C356.724 19.0074 356.29 18.8215 355.749 18.8215C355.207 18.8215 354.768 19.0016 354.429 19.3618C354.102 19.722 353.888 20.2042 353.787 20.8084H357.66Z" fill="white"/>
<path d="M365.26 26.3855C364.617 26.3855 363.958 26.2751 363.281 26.0544C362.616 25.822 361.978 25.4618 361.369 24.9738L362.469 23.2308C362.965 23.6027 363.456 23.8815 363.941 24.0674C364.437 24.2533 364.899 24.3463 365.328 24.3463C365.7 24.3463 365.97 24.2824 366.14 24.1546C366.32 24.0268 366.41 23.8583 366.41 23.6491V23.6143C366.41 23.4748 366.36 23.3528 366.258 23.2483C366.157 23.1437 366.016 23.0565 365.835 22.9868C365.666 22.9055 365.469 22.83 365.243 22.7602C365.018 22.6905 364.781 22.615 364.533 22.5337C364.217 22.4407 363.896 22.3303 363.568 22.2025C363.253 22.0631 362.965 21.8888 362.706 21.6796C362.446 21.4589 362.232 21.1916 362.063 20.8779C361.905 20.5642 361.826 20.1807 361.826 19.7276V19.6927C361.826 19.2163 361.911 18.798 362.08 18.4378C362.26 18.066 362.497 17.7523 362.79 17.4966C363.095 17.241 363.444 17.0493 363.839 16.9215C364.245 16.7937 364.679 16.7297 365.142 16.7297C365.717 16.7297 366.298 16.8285 366.884 17.026C367.482 17.212 368.029 17.4734 368.525 17.8104L367.544 19.6404C367.093 19.3732 366.653 19.164 366.224 19.013C365.796 18.8503 365.418 18.769 365.091 18.769C364.775 18.769 364.538 18.8329 364.38 18.9607C364.223 19.0769 364.144 19.2279 364.144 19.4138V19.4487C364.144 19.5765 364.194 19.6927 364.296 19.7973C364.397 19.8902 364.533 19.9832 364.702 20.0762C364.871 20.1575 365.063 20.2388 365.277 20.3202C365.502 20.4015 365.739 20.4828 365.987 20.5642C366.303 20.6687 366.625 20.7966 366.952 20.9476C367.279 21.087 367.572 21.2613 367.831 21.4705C368.091 21.6796 368.305 21.9353 368.474 22.2374C368.643 22.5395 368.728 22.9055 368.728 23.3354V23.3703C368.728 23.8931 368.637 24.3463 368.457 24.7297C368.288 25.1016 368.045 25.4095 367.73 25.6535C367.414 25.8975 367.042 26.0834 366.613 26.2112C366.196 26.3274 365.745 26.3855 365.26 26.3855Z" fill="white"/>
<path d="M379.198 26.3856C378.668 26.3856 378.155 26.281 377.659 26.0719C377.163 25.8627 376.723 25.5548 376.34 25.1481C375.956 24.7298 375.646 24.2244 375.409 23.6318C375.184 23.0276 375.071 22.3362 375.071 21.5577V21.5229C375.071 20.7444 375.184 20.0588 375.409 19.4662C375.646 18.862 375.95 18.3566 376.323 17.9499C376.706 17.5316 377.146 17.2179 377.642 17.0087C378.138 16.7996 378.657 16.695 379.198 16.695C379.886 16.695 380.45 16.8344 380.89 17.1133C381.341 17.3922 381.719 17.7175 382.023 18.0893V13.488H384.594V26.2113H382.023V24.8693C381.707 25.3108 381.324 25.6768 380.873 25.9673C380.433 26.2462 379.875 26.3856 379.198 26.3856ZM379.858 24.1373C380.162 24.1373 380.444 24.0792 380.704 23.963C380.974 23.8351 381.206 23.6609 381.397 23.4401C381.6 23.2077 381.758 22.9346 381.871 22.6209C381.995 22.2956 382.057 21.9412 382.057 21.5577V21.5229C382.057 21.1394 381.995 20.7908 381.871 20.4771C381.758 20.1518 381.6 19.8787 381.397 19.658C381.206 19.4256 380.974 19.2513 380.704 19.1351C380.444 19.0073 380.162 18.9434 379.858 18.9434C379.553 18.9434 379.266 19.0073 378.995 19.1351C378.736 19.2513 378.505 19.4256 378.302 19.658C378.099 19.8787 377.935 20.146 377.811 20.4597C377.698 20.7734 377.642 21.1278 377.642 21.5229V21.5577C377.642 21.9412 377.698 22.2956 377.811 22.6209C377.935 22.9346 378.099 23.2077 378.302 23.4401C378.505 23.6609 378.736 23.8351 378.995 23.963C379.266 24.0792 379.553 24.1373 379.858 24.1373Z" fill="white"/>
<path d="M391.188 26.4206C390.511 26.4206 389.88 26.3044 389.294 26.072C388.718 25.8396 388.217 25.5085 387.788 25.0785C387.371 24.6486 387.044 24.1432 386.807 23.5622C386.57 22.9696 386.452 22.3131 386.452 21.5927V21.5578C386.452 20.8955 386.559 20.2681 386.773 19.6755C386.999 19.0829 387.309 18.5658 387.703 18.1243C388.098 17.6827 388.566 17.3342 389.107 17.0785C389.66 16.8229 390.269 16.6951 390.934 16.6951C391.69 16.6951 392.344 16.8345 392.896 17.1134C393.449 17.3923 393.906 17.7699 394.267 18.2463C394.639 18.7111 394.909 19.2514 395.079 19.8672C395.259 20.4714 395.349 21.1047 395.349 21.767C395.349 21.8716 395.344 21.9819 395.332 22.0981C395.332 22.2143 395.327 22.3363 395.315 22.4642H389.006C389.13 23.0684 389.384 23.5273 389.767 23.8411C390.162 24.1432 390.647 24.2942 391.222 24.2942C391.65 24.2942 392.034 24.2187 392.372 24.0676C392.71 23.9166 393.06 23.6726 393.421 23.3356L394.893 24.6777C394.464 25.2238 393.945 25.6537 393.336 25.9674C392.727 26.2695 392.011 26.4206 391.188 26.4206ZM392.846 20.8084C392.767 20.2158 392.564 19.7394 392.237 19.3792C391.91 19.0074 391.476 18.8215 390.934 18.8215C390.393 18.8215 389.953 19.0016 389.615 19.3618C389.288 19.722 389.074 20.2042 388.972 20.8084H392.846Z" fill="white"/>
<path d="M402.337 16.8694H404.908V18.2114C405.224 17.7699 405.601 17.4097 406.041 17.1308C406.492 16.8403 407.056 16.6951 407.733 16.6951C408.263 16.6951 408.776 16.7997 409.272 17.0088C409.768 17.218 410.208 17.5317 410.592 17.95C410.975 18.3567 411.279 18.8621 411.505 19.4663C411.742 20.0589 411.86 20.7445 411.86 21.523V21.5578C411.86 22.3363 411.742 23.0277 411.505 23.6319C411.279 24.2245 410.975 24.7299 410.592 25.1482C410.219 25.5549 409.785 25.8628 409.289 26.072C408.793 26.2811 408.274 26.3857 407.733 26.3857C407.045 26.3857 406.475 26.2463 406.024 25.9674C405.585 25.6886 405.212 25.3632 404.908 24.9914V29.0001H402.337V16.8694ZM407.073 24.1374C407.378 24.1374 407.66 24.0793 407.919 23.9631C408.19 23.8352 408.426 23.661 408.629 23.4402C408.832 23.2078 408.99 22.9347 409.103 22.621C409.227 22.3073 409.289 21.9529 409.289 21.5578V21.523C409.289 21.1395 409.227 20.7909 409.103 20.4772C408.99 20.1519 408.832 19.8788 408.629 19.6581C408.426 19.4257 408.19 19.2514 407.919 19.1352C407.66 19.0074 407.378 18.9435 407.073 18.9435C406.769 18.9435 406.481 19.0074 406.21 19.1352C405.951 19.2514 405.72 19.4257 405.517 19.6581C405.325 19.8788 405.167 20.1519 405.043 20.4772C404.93 20.7909 404.874 21.1395 404.874 21.523V21.5578C404.874 21.9413 404.93 22.2957 405.043 22.621C405.167 22.9347 405.325 23.2078 405.517 23.4402C405.72 23.661 405.951 23.8352 406.21 23.9631C406.481 24.0793 406.769 24.1374 407.073 24.1374Z" fill="white"/>
<path d="M413.751 16.8693H416.323V18.7516C416.582 18.1126 416.937 17.6013 417.388 17.2179C417.839 16.8344 418.448 16.6601 419.215 16.695V19.4662H419.08C418.223 19.4662 417.546 19.7335 417.05 20.268C416.565 20.8025 416.323 21.6333 416.323 22.7603V26.2113H413.751V16.8693Z" fill="white"/>
<path d="M425.023 26.4206C424.323 26.4206 423.675 26.2986 423.077 26.0546C422.48 25.7989 421.961 25.4562 421.521 25.0262C421.093 24.5847 420.754 24.0734 420.506 23.4925C420.258 22.8999 420.134 22.2666 420.134 21.5927V21.5578C420.134 20.8839 420.258 20.2565 420.506 19.6755C420.754 19.0829 421.098 18.5658 421.538 18.1243C421.978 17.6827 422.497 17.3342 423.094 17.0785C423.692 16.8229 424.346 16.6951 425.056 16.6951C425.756 16.6951 426.404 16.8229 427.002 17.0785C427.599 17.3225 428.112 17.6653 428.541 18.1069C428.981 18.5368 429.325 19.048 429.573 19.6406C429.821 20.2216 429.945 20.849 429.945 21.523V21.5578C429.945 22.2318 429.821 22.865 429.573 23.4576C429.325 24.0386 428.981 24.5498 428.541 24.9914C428.101 25.4329 427.582 25.7815 426.985 26.0371C426.387 26.2928 425.733 26.4206 425.023 26.4206ZM425.056 24.1374C425.429 24.1374 425.756 24.0734 426.037 23.9456C426.331 23.8062 426.579 23.6203 426.782 23.3879C426.985 23.1555 427.137 22.8883 427.238 22.5862C427.351 22.2724 427.408 21.9413 427.408 21.5927V21.5578C427.408 21.2092 427.351 20.8839 427.238 20.5818C427.126 20.2681 426.962 19.995 426.748 19.7626C426.534 19.5186 426.28 19.3269 425.987 19.1875C425.694 19.048 425.372 18.9783 425.023 18.9783C424.65 18.9783 424.318 19.048 424.025 19.1875C423.743 19.3153 423.5 19.4954 423.297 19.7278C423.094 19.9602 422.936 20.2332 422.824 20.5469C422.722 20.849 422.671 21.1744 422.671 21.523V21.5578C422.671 21.9064 422.728 22.2376 422.84 22.5513C422.953 22.8534 423.117 23.1265 423.331 23.3705C423.545 23.6029 423.793 23.7888 424.075 23.9282C424.368 24.0676 424.696 24.1374 425.056 24.1374Z" fill="white"/>
<path d="M435.528 26.3856C434.998 26.3856 434.485 26.281 433.989 26.0719C433.493 25.8627 433.053 25.5548 432.669 25.1481C432.286 24.7298 431.976 24.2244 431.739 23.6318C431.514 23.0276 431.401 22.3362 431.401 21.5577V21.5229C431.401 20.7444 431.514 20.0588 431.739 19.4662C431.976 18.862 432.28 18.3566 432.652 17.9499C433.036 17.5316 433.476 17.2179 433.972 17.0087C434.468 16.7996 434.987 16.695 435.528 16.695C436.216 16.695 436.78 16.8344 437.22 17.1133C437.671 17.3922 438.049 17.7175 438.353 18.0893V13.488H440.924V26.2113H438.353V24.8693C438.037 25.3108 437.654 25.6768 437.203 25.9673C436.763 26.2462 436.205 26.3856 435.528 26.3856ZM436.188 24.1373C436.492 24.1373 436.774 24.0792 437.034 23.963C437.304 23.8351 437.535 23.6609 437.727 23.4401C437.93 23.2077 438.088 22.9346 438.201 22.6209C438.325 22.2956 438.387 21.9412 438.387 21.5577V21.5229C438.387 21.1394 438.325 20.7908 438.201 20.4771C438.088 20.1518 437.93 19.8787 437.727 19.658C437.535 19.4256 437.304 19.2513 437.034 19.1351C436.774 19.0073 436.492 18.9434 436.188 18.9434C435.883 18.9434 435.596 19.0073 435.325 19.1351C435.066 19.2513 434.835 19.4256 434.632 19.658C434.429 19.8787 434.265 20.146 434.141 20.4597C434.028 20.7734 433.972 21.1278 433.972 21.5229V21.5577C433.972 21.9412 434.028 22.2956 434.141 22.6209C434.265 22.9346 434.429 23.2077 434.632 23.4401C434.835 23.6609 435.066 23.8351 435.325 23.963C435.596 24.0792 435.883 24.1373 436.188 24.1373Z" fill="white"/>
<path d="M446.232 26.3857C445.251 26.3857 444.49 26.0778 443.949 25.462C443.419 24.8461 443.154 23.9979 443.154 22.9173V16.8694H445.725V22.0807C445.725 22.7082 445.86 23.1846 446.131 23.5099C446.401 23.8236 446.785 23.9805 447.281 23.9805C447.777 23.9805 448.166 23.8236 448.448 23.5099C448.741 23.1846 448.888 22.7082 448.888 22.0807V16.8694H451.459V26.2114H448.888V24.8868C448.741 25.0843 448.578 25.2761 448.398 25.462C448.228 25.6363 448.037 25.7931 447.822 25.9326C447.608 26.072 447.371 26.1824 447.112 26.2637C446.853 26.3451 446.559 26.3857 446.232 26.3857Z" fill="white"/>
<path d="M458.04 26.4206C457.363 26.4206 456.732 26.2928 456.146 26.0371C455.57 25.7815 455.074 25.4387 454.657 25.0088C454.24 24.5673 453.913 24.056 453.676 23.475C453.439 22.8825 453.321 22.255 453.321 21.5927V21.5578C453.321 20.8955 453.439 20.2681 453.676 19.6755C453.913 19.0829 454.24 18.5658 454.657 18.1243C455.074 17.6827 455.57 17.3342 456.146 17.0785C456.732 16.8229 457.375 16.6951 458.074 16.6951C458.931 16.6951 459.641 16.8345 460.205 17.1134C460.769 17.3923 461.265 17.7757 461.694 18.2637L460.121 20.0066C459.828 19.6929 459.523 19.4431 459.207 19.2572C458.903 19.0713 458.519 18.9783 458.057 18.9783C457.73 18.9783 457.431 19.048 457.161 19.1875C456.901 19.3153 456.67 19.4954 456.467 19.7278C456.275 19.9602 456.123 20.2332 456.01 20.5469C455.909 20.849 455.858 21.1744 455.858 21.523V21.5578C455.858 21.918 455.909 22.255 456.01 22.5687C456.123 22.8825 456.281 23.1555 456.484 23.3879C456.687 23.6203 456.929 23.8062 457.211 23.9456C457.493 24.0734 457.809 24.1374 458.159 24.1374C458.587 24.1374 458.959 24.0502 459.275 23.8759C459.602 23.69 459.923 23.446 460.239 23.1439L461.745 24.7125C461.305 25.2122 460.803 25.6246 460.239 25.95C459.675 26.2637 458.942 26.4206 458.04 26.4206Z" fill="white"/>
<path d="M466.486 26.3681C466.091 26.3681 465.73 26.3216 465.403 26.2287C465.087 26.1473 464.811 25.9963 464.574 25.7755C464.349 25.5547 464.168 25.2701 464.033 24.9215C463.909 24.5613 463.847 24.1081 463.847 23.562V19.135H462.764V16.8692H463.847V14.4814H466.418V16.8692H468.55V19.135H466.418V23.1263C466.418 23.7305 466.694 24.0326 467.247 24.0326C467.698 24.0326 468.121 23.9222 468.516 23.7014V25.8278C468.245 25.9905 467.946 26.1183 467.619 26.2112C467.292 26.3158 466.914 26.3681 466.486 26.3681Z" fill="white"/>
<path d="M474.646 26.4206C473.947 26.4206 473.298 26.2986 472.7 26.0546C472.103 25.7989 471.584 25.4562 471.144 25.0262C470.716 24.5847 470.377 24.0734 470.129 23.4925C469.881 22.8999 469.757 22.2666 469.757 21.5927V21.5578C469.757 20.8839 469.881 20.2565 470.129 19.6755C470.377 19.0829 470.721 18.5658 471.161 18.1243C471.601 17.6827 472.12 17.3342 472.717 17.0785C473.315 16.8229 473.969 16.6951 474.68 16.6951C475.379 16.6951 476.027 16.8229 476.625 17.0785C477.222 17.3225 477.736 17.6653 478.164 18.1069C478.604 18.5368 478.948 19.048 479.196 19.6406C479.444 20.2216 479.568 20.849 479.568 21.523V21.5578C479.568 22.2318 479.444 22.865 479.196 23.4576C478.948 24.0386 478.604 24.5498 478.164 24.9914C477.724 25.4329 477.206 25.7815 476.608 26.0371C476.01 26.2928 475.356 26.4206 474.646 26.4206ZM474.68 24.1374C475.052 24.1374 475.379 24.0734 475.661 23.9456C475.954 23.8062 476.202 23.6203 476.405 23.3879C476.608 23.1555 476.76 22.8883 476.862 22.5862C476.974 22.2724 477.031 21.9413 477.031 21.5927V21.5578C477.031 21.2092 476.974 20.8839 476.862 20.5818C476.749 20.2681 476.585 19.995 476.371 19.7626C476.157 19.5186 475.903 19.3269 475.61 19.1875C475.317 19.048 474.995 18.9783 474.646 18.9783C474.274 18.9783 473.941 19.048 473.648 19.1875C473.366 19.3153 473.123 19.4954 472.92 19.7278C472.717 19.9602 472.559 20.2332 472.447 20.5469C472.345 20.849 472.294 21.1744 472.294 21.523V21.5578C472.294 21.9064 472.351 22.2376 472.464 22.5513C472.576 22.8534 472.74 23.1265 472.954 23.3705C473.168 23.6029 473.417 23.7888 473.698 23.9282C473.992 24.0676 474.319 24.1374 474.68 24.1374Z" fill="white"/>
<path d="M484.61 26.3855C483.967 26.3855 483.307 26.2751 482.631 26.0544C481.966 25.822 481.328 25.4618 480.719 24.9738L481.819 23.2308C482.315 23.6027 482.806 23.8815 483.291 24.0674C483.787 24.2533 484.249 24.3463 484.678 24.3463C485.05 24.3463 485.32 24.2824 485.49 24.1546C485.67 24.0268 485.76 23.8583 485.76 23.6491V23.6143C485.76 23.4748 485.709 23.3528 485.608 23.2483C485.506 23.1437 485.366 23.0565 485.185 22.9868C485.016 22.9055 484.819 22.83 484.593 22.7602C484.368 22.6905 484.131 22.615 483.883 22.5337C483.567 22.4407 483.245 22.3303 482.918 22.2025C482.603 22.0631 482.315 21.8888 482.056 21.6796C481.796 21.4589 481.582 21.1916 481.413 20.8779C481.255 20.5642 481.176 20.1807 481.176 19.7276V19.6927C481.176 19.2163 481.261 18.798 481.43 18.4378C481.61 18.066 481.847 17.7523 482.14 17.4966C482.445 17.241 482.794 17.0493 483.189 16.9215C483.595 16.7937 484.029 16.7297 484.492 16.7297C485.067 16.7297 485.647 16.8285 486.234 17.026C486.832 17.212 487.378 17.4734 487.875 17.8104L486.894 19.6404C486.442 19.3732 486.003 19.164 485.574 19.013C485.146 18.8503 484.768 18.769 484.441 18.769C484.125 18.769 483.888 18.8329 483.73 18.9607C483.572 19.0769 483.494 19.2279 483.494 19.4138V19.4487C483.494 19.5765 483.544 19.6927 483.646 19.7973C483.747 19.8902 483.883 19.9832 484.052 20.0762C484.221 20.1575 484.413 20.2388 484.627 20.3202C484.852 20.4015 485.089 20.4828 485.337 20.5642C485.653 20.6687 485.974 20.7966 486.302 20.9476C486.629 21.087 486.922 21.2613 487.181 21.4705C487.44 21.6796 487.655 21.9353 487.824 22.2374C487.993 22.5395 488.078 22.9055 488.078 23.3354V23.3703C488.078 23.8931 487.987 24.3463 487.807 24.7297C487.638 25.1016 487.395 25.4095 487.08 25.6535C486.764 25.8975 486.392 26.0834 485.963 26.2112C485.546 26.3274 485.095 26.3855 484.61 26.3855Z" fill="white"/>
<path d="M498.548 26.3856C498.018 26.3856 497.505 26.281 497.009 26.0719C496.513 25.8627 496.073 25.5548 495.689 25.1481C495.306 24.7298 494.996 24.2244 494.759 23.6318C494.534 23.0276 494.421 22.3362 494.421 21.5577V21.5229C494.421 20.7444 494.534 20.0588 494.759 19.4662C494.996 18.862 495.3 18.3566 495.673 17.9499C496.056 17.5316 496.496 17.2179 496.992 17.0087C497.488 16.7996 498.007 16.695 498.548 16.695C499.236 16.695 499.8 16.8344 500.24 17.1133C500.691 17.3922 501.069 17.7175 501.373 18.0893V13.488H503.944V26.2113H501.373V24.8693C501.057 25.3108 500.674 25.6768 500.223 25.9673C499.783 26.2462 499.225 26.3856 498.548 26.3856ZM499.208 24.1373C499.512 24.1373 499.794 24.0792 500.054 23.963C500.324 23.8351 500.555 23.6609 500.747 23.4401C500.95 23.2077 501.108 22.9346 501.221 22.6209C501.345 22.2956 501.407 21.9412 501.407 21.5577V21.5229C501.407 21.1394 501.345 20.7908 501.221 20.4771C501.108 20.1518 500.95 19.8787 500.747 19.658C500.555 19.4256 500.324 19.2513 500.054 19.1351C499.794 19.0073 499.512 18.9434 499.208 18.9434C498.903 18.9434 498.616 19.0073 498.345 19.1351C498.086 19.2513 497.855 19.4256 497.652 19.658C497.449 19.8787 497.285 20.146 497.161 20.4597C497.048 20.7734 496.992 21.1278 496.992 21.5229V21.5577C496.992 21.9412 497.048 22.2956 497.161 22.6209C497.285 22.9346 497.449 23.2077 497.652 23.4401C497.855 23.6609 498.086 23.8351 498.345 23.963C498.616 24.0792 498.903 24.1373 499.208 24.1373Z" fill="white"/>
<path d="M510.538 26.4206C509.861 26.4206 509.23 26.3044 508.643 26.072C508.068 25.8396 507.566 25.5085 507.138 25.0785C506.721 24.6486 506.394 24.1432 506.157 23.5622C505.92 22.9696 505.802 22.3131 505.802 21.5927V21.5578C505.802 20.8955 505.909 20.2681 506.123 19.6755C506.349 19.0829 506.659 18.5658 507.053 18.1243C507.448 17.6827 507.916 17.3342 508.457 17.0785C509.01 16.8229 509.619 16.6951 510.284 16.6951C511.04 16.6951 511.694 16.8345 512.246 17.1134C512.799 17.3923 513.256 17.7699 513.617 18.2463C513.989 18.7111 514.259 19.2514 514.429 19.8672C514.609 20.4714 514.699 21.1047 514.699 21.767C514.699 21.8716 514.694 21.9819 514.682 22.0981C514.682 22.2143 514.677 22.3363 514.665 22.4642H508.356C508.48 23.0684 508.734 23.5273 509.117 23.8411C509.512 24.1432 509.997 24.2942 510.572 24.2942C511 24.2942 511.384 24.2187 511.722 24.0676C512.06 23.9166 512.41 23.6726 512.771 23.3356L514.242 24.6777C513.814 25.2238 513.295 25.6537 512.686 25.9674C512.077 26.2695 511.361 26.4206 510.538 26.4206ZM512.196 20.8084C512.117 20.2158 511.914 19.7394 511.587 19.3792C511.26 19.0074 510.826 18.8215 510.284 18.8215C509.743 18.8215 509.303 19.0016 508.965 19.3618C508.638 19.722 508.424 20.2042 508.322 20.8084H512.196Z" fill="white"/>
<path d="M519.795 26.3855C519.153 26.3855 518.493 26.2751 517.816 26.0544C517.151 25.822 516.514 25.4618 515.905 24.9738L517.004 23.2308C517.501 23.6027 517.991 23.8815 518.476 24.0674C518.972 24.2533 519.435 24.3463 519.863 24.3463C520.235 24.3463 520.506 24.2824 520.675 24.1546C520.856 24.0268 520.946 23.8583 520.946 23.6491V23.6143C520.946 23.4748 520.895 23.3528 520.794 23.2483C520.692 23.1437 520.551 23.0565 520.371 22.9868C520.201 22.9055 520.004 22.83 519.779 22.7602C519.553 22.6905 519.316 22.615 519.068 22.5337C518.752 22.4407 518.431 22.3303 518.104 22.2025C517.788 22.0631 517.501 21.8888 517.241 21.6796C516.982 21.4589 516.768 21.1916 516.598 20.8779C516.441 20.5642 516.362 20.1807 516.362 19.7276V19.6927C516.362 19.2163 516.446 18.798 516.615 18.4378C516.796 18.066 517.033 17.7523 517.326 17.4966C517.63 17.241 517.98 17.0493 518.375 16.9215C518.781 16.7937 519.215 16.7297 519.677 16.7297C520.252 16.7297 520.833 16.8285 521.419 17.026C522.017 17.212 522.564 17.4734 523.06 17.8104L522.079 19.6404C521.628 19.3732 521.188 19.164 520.76 19.013C520.331 18.8503 519.953 18.769 519.626 18.769C519.311 18.769 519.074 18.8329 518.916 18.9607C518.758 19.0769 518.679 19.2279 518.679 19.4138V19.4487C518.679 19.5765 518.73 19.6927 518.831 19.7973C518.933 19.8902 519.068 19.9832 519.237 20.0762C519.406 20.1575 519.598 20.2388 519.812 20.3202C520.038 20.4015 520.275 20.4828 520.523 20.5642C520.839 20.6687 521.16 20.7966 521.487 20.9476C521.814 21.087 522.107 21.2613 522.367 21.4705C522.626 21.6796 522.84 21.9353 523.009 22.2374C523.179 22.5395 523.263 22.9055 523.263 23.3354V23.3703C523.263 23.8931 523.173 24.3463 522.993 24.7297C522.823 25.1016 522.581 25.4095 522.265 25.6535C521.949 25.8975 521.577 26.0834 521.149 26.2112C520.731 26.3274 520.28 26.3855 519.795 26.3855Z" fill="white"/>
<path d="M528.828 26.3856C528.298 26.3856 527.784 26.281 527.288 26.0719C526.792 25.8627 526.352 25.5548 525.969 25.1481C525.585 24.7298 525.275 24.2244 525.038 23.6318C524.813 23.0276 524.7 22.3362 524.7 21.5577V21.5229C524.7 20.7444 524.813 20.0588 525.038 19.4662C525.275 18.862 525.58 18.3566 525.952 17.9499C526.335 17.5316 526.775 17.2179 527.271 17.0087C527.768 16.7996 528.286 16.695 528.828 16.695C529.515 16.695 530.079 16.8344 530.519 17.1133C530.97 17.3922 531.348 17.7175 531.652 18.0893V13.488H534.224V26.2113H531.652V24.8693C531.337 25.3108 530.953 25.6768 530.502 25.9673C530.062 26.2462 529.504 26.3856 528.828 26.3856ZM529.487 24.1373C529.792 24.1373 530.074 24.0792 530.333 23.963C530.604 23.8351 530.835 23.6609 531.027 23.4401C531.23 23.2077 531.387 22.9346 531.5 22.6209C531.624 22.2956 531.686 21.9412 531.686 21.5577V21.5229C531.686 21.1394 531.624 20.7908 531.5 20.4771C531.387 20.1518 531.23 19.8787 531.027 19.658C530.835 19.4256 530.604 19.2513 530.333 19.1351C530.074 19.0073 529.792 18.9434 529.487 18.9434C529.183 18.9434 528.895 19.0073 528.625 19.1351C528.365 19.2513 528.134 19.4256 527.931 19.658C527.728 19.8787 527.565 20.146 527.44 20.4597C527.328 20.7734 527.271 21.1278 527.271 21.5229V21.5577C527.271 21.9412 527.328 22.2956 527.44 22.6209C527.565 22.9346 527.728 23.2077 527.931 23.4401C528.134 23.6609 528.365 23.8351 528.625 23.963C528.895 24.0792 529.183 24.1373 529.487 24.1373Z" fill="white"/>
<path d="M540.817 26.4206C540.141 26.4206 539.509 26.3044 538.923 26.072C538.348 25.8396 537.846 25.5085 537.417 25.0785C537 24.6486 536.673 24.1432 536.436 23.5622C536.199 22.9696 536.081 22.3131 536.081 21.5927V21.5578C536.081 20.8955 536.188 20.2681 536.402 19.6755C536.628 19.0829 536.938 18.5658 537.333 18.1243C537.727 17.6827 538.195 17.3342 538.737 17.0785C539.289 16.8229 539.898 16.6951 540.564 16.6951C541.319 16.6951 541.973 16.8345 542.526 17.1134C543.078 17.3923 543.535 17.7699 543.896 18.2463C544.268 18.7111 544.539 19.2514 544.708 19.8672C544.888 20.4714 544.979 21.1047 544.979 21.767C544.979 21.8716 544.973 21.9819 544.962 22.0981C544.962 22.2143 544.956 22.3363 544.945 22.4642H538.635C538.759 23.0684 539.013 23.5273 539.396 23.8411C539.791 24.1432 540.276 24.2942 540.851 24.2942C541.28 24.2942 541.663 24.2187 542.001 24.0676C542.34 23.9166 542.689 23.6726 543.05 23.3356L544.522 24.6777C544.093 25.2238 543.575 25.6537 542.966 25.9674C542.357 26.2695 541.641 26.4206 540.817 26.4206ZM542.475 20.8084C542.396 20.2158 542.193 19.7394 541.866 19.3792C541.539 19.0074 541.105 18.8215 540.564 18.8215C540.022 18.8215 539.583 19.0016 539.244 19.3618C538.917 19.722 538.703 20.2042 538.601 20.8084H542.475Z" fill="white"/>
<path d="M559.324 17.3747C558.986 17.1423 558.636 16.939 558.276 16.7647C557.926 16.5788 557.576 16.4394 557.227 16.3464V18.9956C558.512 19.3558 559.443 19.8264 560.018 20.4074C560.604 20.9768 560.897 21.7495 560.897 22.7255V22.7603C560.897 23.2484 560.807 23.6899 560.627 24.085C560.458 24.48 560.215 24.8286 559.899 25.1307C559.584 25.4212 559.206 25.6594 558.766 25.8453C558.326 26.0196 557.841 26.1358 557.311 26.1939V27.9194H555.552V26.159C554.819 26.0661 554.109 25.8802 553.421 25.6013C552.744 25.3108 552.124 24.9448 551.56 24.5033L552.88 22.5163C553.342 22.8765 553.787 23.1786 554.216 23.4227C554.656 23.655 555.129 23.8235 555.637 23.9281V21.1569C555.028 20.9826 554.492 20.7908 554.03 20.5817C553.579 20.3725 553.201 20.1227 552.896 19.8322C552.603 19.5418 552.378 19.2048 552.22 18.8214C552.073 18.4379 552 17.9847 552 17.4619V17.427C552 16.9506 552.084 16.5149 552.254 16.1198C552.423 15.7248 552.66 15.382 552.964 15.0915C553.28 14.7894 553.658 14.5512 554.097 14.3769C554.537 14.191 555.022 14.069 555.552 14.0109V13H557.311V14.0632C557.92 14.1445 558.479 14.2956 558.986 14.5163C559.493 14.7255 559.984 14.9985 560.458 15.3355L559.324 17.3747ZM558.428 22.8649C558.428 22.5744 558.343 22.3304 558.174 22.1329C558.005 21.9354 557.689 21.7495 557.227 21.5752V24.0153C558.027 23.8874 558.428 23.5156 558.428 22.8998V22.8649ZM554.47 17.305C554.47 17.5839 554.549 17.8221 554.706 18.0196C554.864 18.2055 555.174 18.3856 555.637 18.5599V16.1895C555.22 16.2476 554.921 16.3755 554.74 16.573C554.56 16.7589 554.47 16.9913 554.47 17.2702V17.305Z" fill="white"/>
<path d="M562.58 24.0851L566.522 20.7561C566.894 20.4424 567.21 20.1635 567.469 19.9195C567.728 19.6639 567.937 19.4257 568.095 19.2049C568.264 18.9725 568.382 18.7517 568.45 18.5426C568.529 18.3218 568.568 18.0836 568.568 17.828C568.568 17.3051 568.422 16.91 568.129 16.6428C567.835 16.3756 567.452 16.2419 566.978 16.2419C566.516 16.2419 566.104 16.3756 565.743 16.6428C565.394 16.91 564.999 17.3225 564.559 17.8803L562.733 16.3639C563.026 15.9573 563.319 15.597 563.612 15.2833C563.917 14.9696 564.238 14.7082 564.576 14.499C564.926 14.2782 565.309 14.1156 565.727 14.011C566.144 13.8948 566.617 13.8367 567.147 13.8367C567.756 13.8367 568.309 13.9297 568.805 14.1156C569.313 14.2899 569.741 14.5397 570.091 14.865C570.452 15.1904 570.728 15.5854 570.92 16.0502C571.123 16.515 571.224 17.0321 571.224 17.6014V17.6363C571.224 18.1475 571.156 18.6065 571.021 19.0132C570.897 19.4082 570.705 19.7859 570.446 20.1461C570.198 20.4947 569.877 20.849 569.482 21.2093C569.087 21.5578 568.63 21.9413 568.112 22.3596L566.183 23.8933H571.342V26.2114H562.58V24.0851Z" fill="white"/>
<path d="M577.467 23.9805C577.918 23.9805 578.29 23.8875 578.583 23.7016C578.876 23.5041 579.113 23.2659 579.294 22.987C579.485 22.7082 579.621 22.4119 579.7 22.0981C579.79 21.7728 579.846 21.4765 579.869 21.2093C579.564 21.4765 579.215 21.6856 578.82 21.8367C578.425 21.9761 577.974 22.0459 577.467 22.0459C576.824 22.0459 576.243 21.9587 575.724 21.7844C575.206 21.5985 574.76 21.3371 574.388 21.0001C574.016 20.6631 573.728 20.2506 573.525 19.7626C573.334 19.2746 573.238 18.7227 573.238 18.1069V18.072C573.238 17.4562 573.345 16.8868 573.559 16.3639C573.785 15.8411 574.095 15.3937 574.49 15.0219C574.884 14.6384 575.358 14.3421 575.91 14.133C576.474 13.9122 577.089 13.8018 577.754 13.8018C578.149 13.8018 578.504 13.8309 578.82 13.889C579.147 13.9355 579.446 14.011 579.716 14.1156C579.987 14.2201 580.241 14.3596 580.478 14.5339C580.714 14.6965 580.946 14.8941 581.171 15.1265C581.385 15.3472 581.577 15.597 581.746 15.8759C581.915 16.1548 582.062 16.4801 582.186 16.852C582.31 17.2238 582.406 17.6479 582.474 18.1243C582.541 18.5891 582.575 19.1236 582.575 19.7278V19.7626C582.575 20.7503 582.462 21.6566 582.237 22.4816C582.011 23.2949 581.679 23.9921 581.239 24.5731C580.81 25.1541 580.275 25.6072 579.632 25.9326C578.989 26.2579 578.245 26.4206 577.399 26.4206C576.531 26.4206 575.792 26.287 575.183 26.0197C574.574 25.7525 574.016 25.4039 573.508 24.974L574.879 22.9347C575.307 23.2949 575.719 23.5622 576.113 23.7365C576.508 23.8992 576.959 23.9805 577.467 23.9805ZM577.89 19.8149C578.532 19.8149 579.029 19.6464 579.378 19.3095C579.739 18.9609 579.919 18.5252 579.919 18.0023V17.9674C579.919 17.4213 579.733 16.974 579.361 16.6254C579 16.2768 578.493 16.1025 577.839 16.1025C577.196 16.1025 576.7 16.2768 576.35 16.6254C576.001 16.9623 575.826 17.4039 575.826 17.95V17.9848C575.826 18.531 576.006 18.9725 576.367 19.3095C576.739 19.6464 577.247 19.8149 577.89 19.8149Z" fill="white"/>
<path d="M584.374 23.4226H587.114V26.2112H584.374V23.4226Z" fill="white"/>
<path d="M593.341 23.9805C593.793 23.9805 594.165 23.8875 594.458 23.7016C594.751 23.5041 594.988 23.2659 595.168 22.987C595.36 22.7082 595.495 22.4119 595.574 22.0981C595.665 21.7728 595.721 21.4765 595.743 21.2093C595.439 21.4765 595.089 21.6856 594.695 21.8367C594.3 21.9761 593.849 22.0459 593.341 22.0459C592.699 22.0459 592.118 21.9587 591.599 21.7844C591.08 21.5985 590.635 21.3371 590.263 21.0001C589.891 20.6631 589.603 20.2506 589.4 19.7626C589.208 19.2746 589.113 18.7227 589.113 18.1069V18.072C589.113 17.4562 589.22 16.8868 589.434 16.3639C589.66 15.8411 589.97 15.3937 590.364 15.0219C590.759 14.6384 591.233 14.3421 591.785 14.133C592.349 13.9122 592.964 13.8018 593.629 13.8018C594.024 13.8018 594.379 13.8309 594.695 13.889C595.022 13.9355 595.321 14.011 595.591 14.1156C595.862 14.2201 596.116 14.3596 596.352 14.5339C596.589 14.6965 596.82 14.8941 597.046 15.1265C597.26 15.3472 597.452 15.597 597.621 15.8759C597.79 16.1548 597.937 16.4801 598.061 16.852C598.185 17.2238 598.281 17.6479 598.348 18.1243C598.416 18.5891 598.45 19.1236 598.45 19.7278V19.7626C598.45 20.7503 598.337 21.6566 598.112 22.4816C597.886 23.2949 597.553 23.9921 597.114 24.5731C596.685 25.1541 596.149 25.6072 595.507 25.9326C594.864 26.2579 594.12 26.4206 593.274 26.4206C592.406 26.4206 591.667 26.287 591.058 26.0197C590.449 25.7525 589.891 25.4039 589.383 24.974L590.753 22.9347C591.182 23.2949 591.594 23.5622 591.988 23.7365C592.383 23.8992 592.834 23.9805 593.341 23.9805ZM593.764 19.8149C594.407 19.8149 594.903 19.6464 595.253 19.3095C595.614 18.9609 595.794 18.5252 595.794 18.0023V17.9674C595.794 17.4213 595.608 16.974 595.236 16.6254C594.875 16.2768 594.368 16.1025 593.714 16.1025C593.071 16.1025 592.575 16.2768 592.225 16.6254C591.875 16.9623 591.701 17.4039 591.701 17.95V17.9848C591.701 18.531 591.881 18.9725 592.242 19.3095C592.614 19.6464 593.122 19.8149 593.764 19.8149Z" fill="white"/>
<path d="M604.541 23.9805C604.992 23.9805 605.365 23.8875 605.658 23.7016C605.951 23.5041 606.188 23.2659 606.368 22.987C606.56 22.7082 606.695 22.4119 606.774 22.0981C606.864 21.7728 606.921 21.4765 606.943 21.2093C606.639 21.4765 606.289 21.6856 605.895 21.8367C605.5 21.9761 605.049 22.0459 604.541 22.0459C603.899 22.0459 603.318 21.9587 602.799 21.7844C602.28 21.5985 601.835 21.3371 601.463 21.0001C601.091 20.6631 600.803 20.2506 600.6 19.7626C600.408 19.2746 600.313 18.7227 600.313 18.1069V18.072C600.313 17.4562 600.42 16.8868 600.634 16.3639C600.859 15.8411 601.17 15.3937 601.564 15.0219C601.959 14.6384 602.433 14.3421 602.985 14.133C603.549 13.9122 604.164 13.8018 604.829 13.8018C605.224 13.8018 605.579 13.8309 605.895 13.889C606.222 13.9355 606.52 14.011 606.791 14.1156C607.062 14.2201 607.316 14.3596 607.552 14.5339C607.789 14.6965 608.02 14.8941 608.246 15.1265C608.46 15.3472 608.652 15.597 608.821 15.8759C608.99 16.1548 609.137 16.4801 609.261 16.852C609.385 17.2238 609.481 17.6479 609.548 18.1243C609.616 18.5891 609.65 19.1236 609.65 19.7278V19.7626C609.65 20.7503 609.537 21.6566 609.312 22.4816C609.086 23.2949 608.753 23.9921 608.314 24.5731C607.885 25.1541 607.349 25.6072 606.707 25.9326C606.064 26.2579 605.319 26.4206 604.474 26.4206C603.605 26.4206 602.867 26.287 602.258 26.0197C601.649 25.7525 601.091 25.4039 600.583 24.974L601.953 22.9347C602.382 23.2949 602.793 23.5622 603.188 23.7365C603.583 23.8992 604.034 23.9805 604.541 23.9805ZM604.964 19.8149C605.607 19.8149 606.103 19.6464 606.453 19.3095C606.814 18.9609 606.994 18.5252 606.994 18.0023V17.9674C606.994 17.4213 606.808 16.974 606.436 16.6254C606.075 16.2768 605.568 16.1025 604.914 16.1025C604.271 16.1025 603.775 16.2768 603.425 16.6254C603.075 16.9623 602.901 17.4039 602.901 17.95V17.9848C602.901 18.531 603.081 18.9725 603.442 19.3095C603.814 19.6464 604.322 19.8149 604.964 19.8149Z" fill="white"/>
<path d="M616.722 26.4206C615.933 26.4206 615.211 26.2637 614.557 25.95C613.914 25.6246 613.362 25.1831 612.9 24.6254C612.448 24.056 612.099 23.3879 611.851 22.621C611.603 21.8541 611.479 21.0291 611.479 20.1461V20.1112C611.479 19.2281 611.603 18.4031 611.851 17.6363C612.11 16.8694 612.471 16.2013 612.933 15.6319C613.396 15.0626 613.948 14.6152 614.591 14.2899C615.245 13.9645 615.967 13.8018 616.756 13.8018C617.534 13.8018 618.245 13.9645 618.888 14.2899C619.542 14.6036 620.094 15.0451 620.545 15.6145C621.008 16.1722 621.363 16.8345 621.611 17.6014C621.87 18.3683 622 19.1933 622 20.0764V20.1112C622 20.9943 621.87 21.8193 621.611 22.5862C621.363 23.353 621.008 24.0212 620.545 24.5905C620.083 25.1599 619.525 25.6072 618.871 25.9326C618.228 26.2579 617.512 26.4206 616.722 26.4206ZM616.756 23.9979C617.151 23.9979 617.506 23.905 617.822 23.7191C618.138 23.5215 618.408 23.2543 618.634 22.9173C618.859 22.5687 619.029 22.162 619.141 21.6973C619.265 21.2209 619.327 20.7038 619.327 20.1461V20.1112C619.327 19.5535 619.265 19.0422 619.141 18.5774C619.017 18.101 618.837 17.6886 618.6 17.34C618.374 16.9914 618.098 16.7183 617.771 16.5208C617.455 16.3233 617.106 16.2245 616.722 16.2245C616.328 16.2245 615.972 16.3233 615.657 16.5208C615.341 16.7067 615.07 16.974 614.845 17.3225C614.63 17.6595 614.461 18.0662 614.337 18.5426C614.213 19.0074 614.151 19.5186 614.151 20.0764V20.1112C614.151 20.6689 614.213 21.186 614.337 21.6624C614.461 22.1388 614.636 22.5513 614.862 22.8999C615.087 23.2368 615.358 23.5041 615.674 23.7016C616.001 23.8992 616.362 23.9979 616.756 23.9979Z" fill="white"/>
<path d="M719.279 18.6927H723.877V14.7039H719.279V18.6927ZM719.07 31.1285H724.087V29.1341L722.739 20.0536H720.417L719.07 29.1341V31.1285ZM735.449 34.8827H739.862V18.4346H735.449V19.9832C734.613 19.0212 733.498 18.1531 731.593 18.1531C728.62 18.1531 726.065 20.6637 726.065 24.7933V24.8402C726.065 28.8994 728.643 31.4101 731.616 31.4101C733.498 31.4101 734.589 30.495 735.449 29.4391V34.8827ZM732.964 27.6793C731.547 27.6793 730.385 26.4827 730.385 24.7933V24.7464C730.385 23.057 731.547 21.8838 732.964 21.8838C734.38 21.8838 735.518 23.0804 735.518 24.7464V24.7933C735.518 26.4827 734.38 27.6793 732.964 27.6793ZM746.407 31.4101C748.195 31.4101 749.357 30.448 750.17 29.3922V31.1285H754.582V18.4346H750.17V25.3095C750.17 26.6939 749.38 27.4447 748.335 27.4447C747.266 27.4447 746.546 26.6939 746.546 25.3095V18.4346H742.133V26.7408C742.133 29.6268 743.736 31.4101 746.407 31.4101ZM763.172 31.4335C765.68 31.4335 767.422 30.4011 768.63 28.8525L766.191 26.8112C765.285 27.7028 764.449 28.1017 763.404 28.1017C762.033 28.1017 761.035 27.3978 760.686 26.0134H769.094C769.117 25.7084 769.117 25.3799 769.117 25.0983C769.117 21.3676 767.12 18.1531 762.777 18.1531C759.061 18.1531 756.436 21.086 756.436 24.7933V24.8402C756.436 28.7821 759.223 31.4335 763.172 31.4335ZM760.617 23.7374C760.849 22.3531 761.639 21.438 762.8 21.438C764.008 21.438 764.821 22.3296 764.983 23.7374H760.617ZM771.009 31.1285H775.422V27.1866C775.422 24.2536 776.723 22.9162 779.022 22.9162H779.394V18.2235C777.304 18.1296 776.142 19.2559 775.422 20.9922V18.4346H771.009V31.1285ZM780.944 17.2849H785.543V14H780.944V17.2849ZM781.037 31.1285H785.45V18.4346H781.037V31.1285ZM792.994 31.4101C794.875 31.4101 795.967 30.495 796.826 29.4391V31.1285H801.239V14H796.826V19.9832C795.99 19.0212 794.875 18.1531 792.971 18.1531C789.998 18.1531 787.443 20.6637 787.443 24.7933V24.8402C787.443 28.8994 790.021 31.4101 792.994 31.4101ZM794.341 27.6793C792.924 27.6793 791.763 26.4827 791.763 24.7933V24.7464C791.763 23.057 792.924 21.8838 794.341 21.8838C795.758 21.8838 796.896 23.0804 796.896 24.7464V24.7933C796.896 26.4827 795.758 27.6793 794.341 27.6793ZM810.014 31.4335C814.056 31.4335 816.982 28.4067 816.982 24.7933V24.7464C816.982 21.133 814.079 18.1531 810.061 18.1531C806.019 18.1531 803.093 21.1799 803.093 24.7933V24.8402C803.093 28.4536 805.996 31.4335 810.014 31.4335ZM810.061 27.6559C808.504 27.6559 807.39 26.3419 807.39 24.7933V24.7464C807.39 23.2212 808.412 21.9307 810.014 21.9307C811.57 21.9307 812.685 23.2447 812.685 24.7933V24.8402C812.685 26.3654 811.663 27.6559 810.061 27.6559ZM829.351 31.2223H833.369L838.386 18.4346H833.811L831.395 25.8492L828.98 18.4346H824.334L829.351 31.2223ZM839.803 17.2849H844.402V14H839.803V17.2849ZM839.896 31.1285H844.309V18.4346H839.896V31.1285ZM852.992 31.4335C855.5 31.4335 857.242 30.4011 858.45 28.8525L856.011 26.8112C855.105 27.7028 854.269 28.1017 853.224 28.1017C851.854 28.1017 850.855 27.3978 850.507 26.0134H858.915C858.938 25.7084 858.938 25.3799 858.938 25.0983C858.938 21.3676 856.94 18.1531 852.597 18.1531C848.881 18.1531 846.256 21.086 846.256 24.7933V24.8402C846.256 28.7821 849.043 31.4335 852.992 31.4335ZM850.437 23.7374C850.669 22.3531 851.459 21.438 852.62 21.438C853.828 21.438 854.641 22.3296 854.804 23.7374H850.437ZM860.83 17.2849H865.428V14H860.83V17.2849ZM860.853 34.9531C863.71 34.9531 865.335 33.7799 865.335 30.5654V18.4346H860.922V30.3777C860.922 31.4804 860.481 31.8559 859.622 31.8559C859.436 31.8559 859.227 31.8559 859.041 31.8324V34.7888C859.575 34.8592 860.156 34.9531 860.853 34.9531ZM867.838 17.2849H872.437V14H867.838V17.2849ZM867.931 31.1285H872.344V18.4346H867.931V31.1285ZM879.795 31.3866C881.026 31.3866 882.071 31.105 882.861 30.6592V27.1631C882.327 27.4212 881.769 27.5855 881.188 27.5855C880.376 27.5855 879.981 27.2101 879.981 26.3184V22.0246H882.907V18.4346H879.981V15.2201H875.568V18.4346H874.081V22.0246H875.568V27.1866C875.568 30.2134 877.147 31.3866 879.795 31.3866ZM890.874 31.4335C894.915 31.4335 897.842 28.4067 897.842 24.7933V24.7464C897.842 21.133 894.938 18.1531 890.92 18.1531C886.879 18.1531 883.952 21.1799 883.952 24.7933V24.8402C883.952 28.4536 886.856 31.4335 890.874 31.4335ZM890.92 27.6559C889.364 27.6559 888.249 26.3419 888.249 24.7933V24.7464C888.249 23.2212 889.271 21.9307 890.874 21.9307C892.43 21.9307 893.545 23.2447 893.545 24.7933V24.8402C893.545 26.3654 892.523 27.6559 890.92 27.6559ZM719 52.2458H723.413V45.3709C723.413 43.9866 724.203 43.2358 725.271 43.2358C726.316 43.2358 727.036 43.9866 727.036 45.3709V52.2458H731.449V43.9397C731.449 41.0536 729.847 39.2704 727.176 39.2704C725.387 39.2704 724.226 40.2793 723.413 41.3352V39.552H719V52.2458ZM740.131 52.5508C744.173 52.5508 747.099 49.524 747.099 45.9106V45.8637C747.099 42.2503 744.196 39.2704 740.178 39.2704C736.136 39.2704 733.21 42.2972 733.21 45.9106V45.9575C733.21 49.5709 736.113 52.5508 740.131 52.5508ZM740.178 48.7732C738.621 48.7732 737.507 47.4592 737.507 45.9106V45.8637C737.507 44.3385 738.529 43.048 740.131 43.048C741.687 43.048 742.802 44.362 742.802 45.9106V45.9575C742.802 47.4827 741.78 48.7732 740.178 48.7732ZM760.398 52.5039C761.629 52.5039 762.674 52.2223 763.464 51.7765V48.2804C762.93 48.5385 762.373 48.7028 761.792 48.7028C760.979 48.7028 760.584 48.3274 760.584 47.4358V43.1419H763.511V39.552H760.584V36.3374H756.171V39.552H754.685V43.1419H756.171V48.3039C756.171 51.3307 757.751 52.5039 760.398 52.5039ZM771.291 52.5508C773.8 52.5508 775.542 51.5184 776.75 49.9698L774.311 47.9285C773.405 48.8201 772.569 49.219 771.524 49.219C770.153 49.219 769.155 48.5151 768.806 47.1307H777.214C777.237 46.8257 777.237 46.4972 777.237 46.2156C777.237 42.4849 775.24 39.2704 770.897 39.2704C767.18 39.2704 764.556 42.2033 764.556 45.9106V45.9575C764.556 49.8994 767.343 52.5508 771.291 52.5508ZM768.737 44.8547C768.969 43.4704 769.759 42.5553 770.92 42.5553C772.128 42.5553 772.94 43.4469 773.103 44.8547H768.737ZM785.571 56H789.984V50.6972C790.797 51.6592 791.912 52.5274 793.816 52.5274C796.789 52.5274 799.367 50.0168 799.367 45.8872V45.8402C799.367 41.781 796.789 39.2704 793.793 39.2704C791.912 39.2704 790.843 40.1855 789.984 41.2413V39.552H785.571V56ZM792.446 48.7966C791.029 48.7966 789.891 47.6 789.891 45.9106V45.8637C789.891 44.1978 791.029 43.0011 792.446 43.0011C793.886 43.0011 795.024 44.1978 795.024 45.8637V45.9106C795.024 47.6235 793.886 48.7966 792.446 48.7966ZM801.267 52.2458H805.68V48.3039C805.68 45.3709 806.981 44.0335 809.28 44.0335H809.652V39.3408C807.561 39.2469 806.4 40.3732 805.68 42.1095V39.552H801.267V52.2458ZM817.199 52.5508C819.708 52.5508 821.45 51.5184 822.657 49.9698L820.219 47.9285C819.313 48.8201 818.477 49.219 817.431 49.219C816.061 49.219 815.062 48.5151 814.714 47.1307H823.122C823.145 46.8257 823.145 46.4972 823.145 46.2156C823.145 42.4849 821.148 39.2704 816.804 39.2704C813.088 39.2704 810.464 42.2033 810.464 45.9106V45.9575C810.464 49.8994 813.251 52.5508 817.199 52.5508ZM814.644 44.8547C814.877 43.4704 815.666 42.5553 816.828 42.5553C818.035 42.5553 818.848 43.4469 819.011 44.8547H814.644ZM831.448 52.5508C835.49 52.5508 838.416 49.524 838.416 45.9106V45.8637C838.416 42.2503 835.513 39.2704 831.495 39.2704C827.454 39.2704 824.527 42.2972 824.527 45.9106V45.9575C824.527 49.5709 827.43 52.5508 831.448 52.5508ZM831.495 48.7732C829.939 48.7732 828.824 47.4592 828.824 45.9106V45.8637C828.824 44.3385 829.846 43.048 831.448 43.048C833.005 43.048 834.119 44.362 834.119 45.9106V45.9575C834.119 47.4827 833.097 48.7732 831.495 48.7732ZM846.342 52.5508C849.106 52.5508 850.778 51.3777 851.94 49.6413L848.99 47.4827C848.293 48.3039 847.62 48.7966 846.575 48.7966C845.088 48.7966 844.066 47.5531 844.066 45.9106V45.8637C844.066 44.3151 845.111 43.048 846.528 43.048C847.596 43.048 848.27 43.5408 848.874 44.3855L851.87 42.133C850.802 40.4201 849.083 39.2939 846.505 39.2939C842.533 39.2939 839.769 42.3207 839.769 45.9106V45.9575C839.769 49.5475 842.556 52.5508 846.342 52.5508ZM857.684 52.5274C859.472 52.5274 860.633 51.5654 861.446 50.5095V52.2458H865.859V39.552H861.446V46.4268C861.446 47.8112 860.657 48.562 859.611 48.562C858.543 48.562 857.823 47.8112 857.823 46.4268V39.552H853.41V47.8581C853.41 50.7441 855.013 52.5274 857.684 52.5274ZM868.224 56H872.637V50.6972C873.45 51.6592 874.564 52.5274 876.469 52.5274C879.442 52.5274 882.02 50.0168 882.02 45.8872V45.8402C882.02 41.781 879.442 39.2704 876.446 39.2704C874.564 39.2704 873.496 40.1855 872.637 41.2413V39.552H868.224V56ZM875.099 48.7966C873.682 48.7966 872.544 47.6 872.544 45.9106V45.8637C872.544 44.1978 873.682 43.0011 875.099 43.0011C876.539 43.0011 877.677 44.1978 877.677 45.8637V45.9106C877.677 47.6235 876.539 48.7966 875.099 48.7966ZM890.145 52.5508C892.653 52.5508 894.395 51.5184 895.603 49.9698L893.164 47.9285C892.258 48.8201 891.422 49.219 890.377 49.219C889.006 49.219 888.008 48.5151 887.659 47.1307H896.067C896.09 46.8257 896.09 46.4972 896.09 46.2156C896.09 42.4849 894.093 39.2704 889.75 39.2704C886.033 39.2704 883.409 42.2033 883.409 45.9106V45.9575C883.409 49.8994 886.196 52.5508 890.145 52.5508ZM887.59 44.8547C887.822 43.4704 888.612 42.5553 889.773 42.5553C890.981 42.5553 891.794 43.4469 891.956 44.8547H887.59ZM902.976 52.5274C906.042 52.5274 908.109 51.0726 908.109 48.2804V48.2335C908.109 45.7698 906.135 44.9017 903.649 44.1978C902.325 43.7989 901.605 43.5642 901.605 43.0715V43.0246C901.605 42.6726 901.954 42.4145 902.627 42.4145C903.626 42.4145 905.043 42.8603 906.344 43.5877L907.853 40.7721C906.413 39.8335 904.509 39.2939 902.674 39.2939C899.771 39.2939 897.634 40.7955 897.634 43.4939V43.5408C897.634 46.0983 899.608 46.943 902.093 47.6C903.417 47.9754 904.114 48.1866 904.114 48.6793V48.7263C904.114 49.1721 903.766 49.4067 902.999 49.4067C901.698 49.4067 900.119 48.914 898.679 47.952L897.03 50.6503C898.772 51.9173 900.862 52.5274 902.976 52.5274ZM911.33 46.8961H913.653L915 37.8156V35.8212H909.983V37.8156L911.33 46.8961ZM910.192 52.2458H914.791V48.257H910.192V52.2458Z" fill="black"/>
<path d="M1133.5 58H949.5C937.074 58 927 47.9264 927 35.5C927 23.0736 937.074 13 949.5 13H1133.5C1145.93 13 1156 23.0736 1156 35.5C1156 47.9264 1145.93 58 1133.5 58Z" fill="#6D23C2"/>
<path d="M946.99 33.1651C947.785 33.1651 948.46 32.9851 948.97 32.7001V30.465C948.625 30.63 948.265 30.7351 947.89 30.7351C947.365 30.7351 947.11 30.495 947.11 29.925V27.18H949V24.885H947.11V22.83H944.26V24.885H943.3V27.18H944.26V30.48C944.26 32.415 945.28 33.1651 946.99 33.1651ZM950.225 24.15H953.195V22.05H950.225V24.15ZM950.285 33H953.135V24.885H950.285V33ZM958.742 33.195C960.362 33.195 961.487 32.535 962.267 31.545L960.692 30.24C960.107 30.81 959.567 31.0651 958.892 31.0651C958.007 31.0651 957.362 30.615 957.137 29.73H962.567C962.582 29.535 962.582 29.3251 962.582 29.1451C962.582 26.7601 961.292 24.705 958.487 24.705C956.087 24.705 954.392 26.5801 954.392 28.9501V28.98C954.392 31.5 956.192 33.195 958.742 33.195ZM957.092 28.275C957.242 27.39 957.752 26.805 958.502 26.805C959.282 26.805 959.807 27.375 959.912 28.275H957.092ZM963.804 33H966.654V28.605C966.654 27.72 967.164 27.24 967.854 27.24C968.529 27.24 968.994 27.72 968.994 28.605V33H971.844V27.6901C971.844 25.8451 970.809 24.705 969.084 24.705C967.929 24.705 967.179 25.35 966.654 26.025V24.885H963.804V33ZM977.331 33.195C978.951 33.195 980.076 32.535 980.856 31.545L979.281 30.24C978.696 30.81 978.156 31.0651 977.481 31.0651C976.596 31.0651 975.951 30.615 975.726 29.73H981.156C981.171 29.535 981.171 29.3251 981.171 29.1451C981.171 26.7601 979.881 24.705 977.076 24.705C974.676 24.705 972.981 26.5801 972.981 28.9501V28.98C972.981 31.5 974.781 33.195 977.331 33.195ZM975.681 28.275C975.831 27.39 976.341 26.805 977.091 26.805C977.871 26.805 978.396 27.375 978.501 28.275H975.681ZM985.618 33.18C987.598 33.18 988.933 32.25 988.933 30.465V30.435C988.933 28.86 987.658 28.305 986.053 27.855C985.198 27.6 984.733 27.45 984.733 27.135V27.105C984.733 26.88 984.958 26.715 985.393 26.715C986.038 26.715 986.953 27 987.793 27.465L988.768 25.6651C987.838 25.0651 986.608 24.72 985.423 24.72C983.548 24.72 982.168 25.6801 982.168 27.4051V27.435C982.168 29.07 983.443 29.6101 985.048 30.0301C985.903 30.2701 986.353 30.405 986.353 30.72V30.75C986.353 31.035 986.128 31.185 985.633 31.185C984.793 31.185 983.773 30.87 982.843 30.255L981.778 31.98C982.903 32.79 984.253 33.18 985.618 33.18ZM994.258 33H997.108V28.605C997.108 27.72 997.618 27.24 998.308 27.24C998.983 27.24 999.448 27.72 999.448 28.605V33H1002.3V27.6901C1002.3 25.8451 1001.26 24.705 999.538 24.705C998.383 24.705 997.633 25.3201 997.108 25.9951V22.05H994.258V33ZM1006.09 33.18C1007.16 33.18 1007.92 32.775 1008.48 32.16V33H1011.3V28.335C1011.3 27.195 1011.04 26.355 1010.43 25.755C1009.78 25.11 1008.79 24.765 1007.34 24.765C1005.94 24.765 1004.97 25.0201 1004.05 25.3951L1004.64 27.4051C1005.36 27.1201 1006.02 26.955 1006.87 26.955C1007.97 26.955 1008.49 27.435 1008.49 28.275V28.41C1008.03 28.245 1007.29 28.095 1006.54 28.095C1004.64 28.095 1003.36 28.9651 1003.36 30.6451V30.675C1003.36 32.295 1004.55 33.18 1006.09 33.18ZM1007.11 31.3951C1006.53 31.3951 1006.11 31.065 1006.11 30.51V30.48C1006.11 29.88 1006.59 29.475 1007.41 29.475C1007.83 29.475 1008.24 29.565 1008.52 29.685V30.06C1008.52 30.87 1007.94 31.3951 1007.11 31.3951ZM1015.97 33.18C1017.95 33.18 1019.28 32.25 1019.28 30.465V30.435C1019.28 28.86 1018.01 28.305 1016.4 27.855C1015.55 27.6 1015.08 27.45 1015.08 27.135V27.105C1015.08 26.88 1015.31 26.715 1015.74 26.715C1016.39 26.715 1017.3 27 1018.14 27.465L1019.12 25.6651C1018.19 25.0651 1016.96 24.72 1015.77 24.72C1013.9 24.72 1012.52 25.6801 1012.52 27.4051V27.435C1012.52 29.07 1013.79 29.6101 1015.4 30.0301C1016.25 30.2701 1016.7 30.405 1016.7 30.72V30.75C1016.7 31.035 1016.48 31.185 1015.98 31.185C1015.14 31.185 1014.12 30.87 1013.19 30.255L1012.13 31.98C1013.25 32.79 1014.6 33.18 1015.97 33.18ZM1023.53 33.1651C1024.32 33.1651 1025 32.9851 1025.51 32.7001V30.465C1025.16 30.63 1024.8 30.7351 1024.43 30.7351C1023.9 30.7351 1023.65 30.495 1023.65 29.925V27.18H1025.54V24.885H1023.65V22.83H1020.8V24.885H1019.84V27.18H1020.8V30.48C1020.8 32.415 1021.82 33.1651 1023.53 33.1651ZM1029.09 33.18C1030.15 33.18 1030.92 32.775 1031.47 32.16V33H1034.29V28.335C1034.29 27.195 1034.04 26.355 1033.42 25.755C1032.78 25.11 1031.79 24.765 1030.33 24.765C1028.94 24.765 1027.96 25.0201 1027.05 25.3951L1027.63 27.4051C1028.35 27.1201 1029.01 26.955 1029.87 26.955C1030.96 26.955 1031.49 27.435 1031.49 28.275V28.41C1031.02 28.245 1030.29 28.095 1029.54 28.095C1027.63 28.095 1026.36 28.9651 1026.36 30.6451V30.675C1026.36 32.295 1027.54 33.18 1029.09 33.18ZM1030.11 31.3951C1029.52 31.3951 1029.1 31.065 1029.1 30.51V30.48C1029.1 29.88 1029.58 29.475 1030.41 29.475C1030.83 29.475 1031.23 29.565 1031.52 29.685V30.06C1031.52 30.87 1030.93 31.3951 1030.11 31.3951ZM1043.92 33.195C1045.54 33.195 1046.67 32.535 1047.45 31.545L1045.87 30.24C1045.29 30.81 1044.75 31.0651 1044.07 31.0651C1043.19 31.0651 1042.54 30.615 1042.32 29.73H1047.75C1047.76 29.535 1047.76 29.3251 1047.76 29.1451C1047.76 26.7601 1046.47 24.705 1043.67 24.705C1041.27 24.705 1039.57 26.5801 1039.57 28.9501V28.98C1039.57 31.5 1041.37 33.195 1043.92 33.195ZM1042.27 28.275C1042.42 27.39 1042.93 26.805 1043.68 26.805C1044.46 26.805 1044.99 27.375 1045.09 28.275H1042.27ZM1049.04 33H1051.89V22.05H1049.04V33ZM1061.62 33.21C1063.96 33.21 1065.67 31.845 1065.67 29.715V29.685C1065.67 27.9 1064.45 27.06 1062.95 26.73L1065.46 24.585V22.5H1057.87V24.855H1061.89L1059.47 27.0301L1059.89 28.545H1061.12C1062.22 28.545 1062.83 28.95 1062.83 29.625V29.6551C1062.83 30.3001 1062.31 30.72 1061.48 30.72C1060.52 30.72 1059.73 30.2851 1058.98 29.5201L1057.15 31.35C1058.17 32.475 1059.59 33.21 1061.62 33.21ZM1068.64 33H1071.5V22.425H1069.39L1066.31 23.295L1066.87 25.545L1068.64 25.14V33ZM1080.73 33.18C1081.95 33.18 1082.65 32.595 1083.21 31.92V33H1086.06V22.05H1083.21V25.875C1082.67 25.26 1081.95 24.705 1080.72 24.705C1078.8 24.705 1077.15 26.3101 1077.15 28.9501V28.98C1077.15 31.575 1078.81 33.18 1080.73 33.18ZM1081.6 30.795C1080.69 30.795 1079.94 30.0301 1079.94 28.9501V28.92C1079.94 27.84 1080.69 27.09 1081.6 27.09C1082.52 27.09 1083.25 27.855 1083.25 28.92V28.9501C1083.25 30.0301 1082.52 30.795 1081.6 30.795ZM1091.6 33.195C1093.22 33.195 1094.35 32.535 1095.13 31.545L1093.55 30.24C1092.97 30.81 1092.43 31.0651 1091.75 31.0651C1090.87 31.0651 1090.22 30.615 1090 29.73H1095.43C1095.44 29.535 1095.44 29.3251 1095.44 29.1451C1095.44 26.7601 1094.15 24.705 1091.35 24.705C1088.95 24.705 1087.25 26.5801 1087.25 28.9501V28.98C1087.25 31.5 1089.05 33.195 1091.6 33.195ZM1089.95 28.275C1090.1 27.39 1090.61 26.805 1091.36 26.805C1092.14 26.805 1092.67 27.375 1092.77 28.275H1089.95ZM1104.85 33.195C1106.47 33.195 1107.59 32.535 1108.37 31.545L1106.8 30.24C1106.21 30.81 1105.67 31.0651 1105 31.0651C1104.11 31.0651 1103.47 30.615 1103.24 29.73H1108.67C1108.69 29.535 1108.69 29.3251 1108.69 29.1451C1108.69 26.7601 1107.4 24.705 1104.59 24.705C1102.19 24.705 1100.5 26.5801 1100.5 28.9501V28.98C1100.5 31.5 1102.3 33.195 1104.85 33.195ZM1103.2 28.275C1103.35 27.39 1103.86 26.805 1104.61 26.805C1105.39 26.805 1105.91 27.375 1106.02 28.275H1103.2ZM1109.91 33H1112.76V28.605C1112.76 27.72 1113.27 27.24 1113.96 27.24C1114.63 27.24 1115.1 27.72 1115.1 28.605V33H1117.95V27.6901C1117.95 25.8451 1116.91 24.705 1115.19 24.705C1114.03 24.705 1113.28 25.35 1112.76 26.025V24.885H1109.91V33ZM1123.43 33.195C1125.05 33.195 1126.18 32.535 1126.96 31.545L1125.38 30.24C1124.8 30.81 1124.26 31.0651 1123.58 31.0651C1122.7 31.0651 1122.05 30.615 1121.83 29.73H1127.26C1127.27 29.535 1127.27 29.3251 1127.27 29.1451C1127.27 26.7601 1125.98 24.705 1123.18 24.705C1120.78 24.705 1119.08 26.5801 1119.08 28.9501V28.98C1119.08 31.5 1120.88 33.195 1123.43 33.195ZM1121.78 28.275C1121.93 27.39 1122.44 26.805 1123.19 26.805C1123.97 26.805 1124.5 27.375 1124.6 28.275H1121.78ZM1128.5 33H1131.35V30.48C1131.35 28.605 1132.19 27.75 1133.67 27.75H1133.91V24.75C1132.56 24.69 1131.81 25.4101 1131.35 26.5201V24.885H1128.5V33ZM1138.91 33.195C1141.52 33.195 1143.41 31.2601 1143.41 28.9501V28.92C1143.41 26.61 1141.53 24.705 1138.94 24.705C1136.33 24.705 1134.44 26.6401 1134.44 28.9501V28.98C1134.44 31.29 1136.31 33.195 1138.91 33.195ZM1138.94 30.7801C1137.93 30.7801 1137.21 29.9401 1137.21 28.9501V28.92C1137.21 27.945 1137.87 27.1201 1138.91 27.1201C1139.91 27.1201 1140.63 27.9601 1140.63 28.9501V28.98C1140.63 29.955 1139.97 30.7801 1138.94 30.7801ZM943.765 50.4001H946.615V47.01C947.14 47.625 947.86 48.18 949.09 48.18C951.01 48.18 952.675 46.5751 952.675 43.9351V43.905C952.675 41.31 951.01 39.7051 949.075 39.7051C947.86 39.7051 947.17 40.29 946.615 40.965V39.885H943.765V50.4001ZM948.205 45.795C947.29 45.795 946.555 45.0301 946.555 43.9501V43.92C946.555 42.855 947.29 42.09 948.205 42.09C949.135 42.09 949.87 42.855 949.87 43.92V43.9501C949.87 45.0451 949.135 45.795 948.205 45.795ZM956.227 48.18C957.292 48.18 958.057 47.775 958.612 47.16V48H961.432V43.335C961.432 42.195 961.177 41.3551 960.562 40.7551C959.917 40.1101 958.927 39.765 957.472 39.765C956.077 39.765 955.102 40.0201 954.187 40.3951L954.772 42.405C955.492 42.12 956.152 41.9551 957.007 41.9551C958.102 41.9551 958.627 42.4351 958.627 43.2751V43.41C958.162 43.245 957.427 43.0951 956.677 43.0951C954.772 43.0951 953.497 43.9651 953.497 45.6451V45.675C953.497 47.295 954.682 48.18 956.227 48.18ZM957.247 46.3951C956.662 46.3951 956.242 46.065 956.242 45.51V45.48C956.242 44.88 956.722 44.475 957.547 44.475C957.967 44.475 958.372 44.5651 958.657 44.6851V45.0601C958.657 45.8701 958.072 46.3951 957.247 46.3951ZM962.881 48H965.731V45.48C965.731 43.605 966.571 42.75 968.056 42.75H968.296V39.75C966.946 39.69 966.196 40.4101 965.731 41.5201V39.885H962.881V48ZM971.241 48.18C972.306 48.18 973.071 47.775 973.626 47.16V48H976.446V43.335C976.446 42.195 976.191 41.3551 975.576 40.7551C974.931 40.1101 973.941 39.765 972.486 39.765C971.091 39.765 970.116 40.0201 969.201 40.3951L969.786 42.405C970.506 42.12 971.166 41.9551 972.021 41.9551C973.116 41.9551 973.641 42.4351 973.641 43.2751V43.41C973.176 43.245 972.441 43.0951 971.691 43.0951C969.786 43.0951 968.511 43.9651 968.511 45.6451V45.675C968.511 47.295 969.696 48.18 971.241 48.18ZM972.261 46.3951C971.676 46.3951 971.256 46.065 971.256 45.51V45.48C971.256 44.88 971.736 44.475 972.561 44.475C972.981 44.475 973.386 44.5651 973.671 44.6851V45.0601C973.671 45.8701 973.086 46.3951 972.261 46.3951ZM985.971 48.195C987.756 48.195 988.836 47.445 989.586 46.335L987.681 44.9551C987.231 45.4801 986.796 45.795 986.121 45.795C985.161 45.795 984.501 45.0001 984.501 43.9501V43.92C984.501 42.93 985.176 42.12 986.091 42.12C986.781 42.12 987.216 42.435 987.606 42.975L989.541 41.535C988.851 40.44 987.741 39.7201 986.076 39.7201C983.511 39.7201 981.726 41.6551 981.726 43.9501V43.98C981.726 46.275 983.526 48.195 985.971 48.195ZM992.921 48.18C993.986 48.18 994.751 47.775 995.306 47.16V48H998.126V43.335C998.126 42.195 997.871 41.3551 997.256 40.7551C996.611 40.1101 995.621 39.765 994.166 39.765C992.771 39.765 991.796 40.0201 990.881 40.3951L991.466 42.405C992.186 42.12 992.846 41.9551 993.701 41.9551C994.796 41.9551 995.321 42.4351 995.321 43.2751V43.41C994.856 43.245 994.121 43.0951 993.371 43.0951C991.466 43.0951 990.191 43.9651 990.191 45.6451V45.675C990.191 47.295 991.376 48.18 992.921 48.18ZM993.941 46.3951C993.356 46.3951 992.936 46.065 992.936 45.51V45.48C992.936 44.88 993.416 44.475 994.241 44.475C994.661 44.475 995.066 44.5651 995.351 44.6851V45.0601C995.351 45.8701 994.766 46.3951 993.941 46.3951ZM999.576 48H1002.43V43.59C1002.43 42.705 1002.91 42.2401 1003.58 42.2401C1004.26 42.2401 1004.69 42.705 1004.69 43.59V48H1007.54V43.59C1007.54 42.705 1008.04 42.2401 1008.71 42.2401C1009.39 42.2401 1009.82 42.705 1009.82 43.59V48H1012.67V42.675C1012.67 40.785 1011.62 39.7051 1009.9 39.7051C1008.71 39.7051 1007.89 40.2151 1007.18 41.0251C1006.75 40.1851 1005.92 39.7051 1004.84 39.7051C1003.7 39.7051 1002.95 40.32 1002.43 40.995V39.885H999.576V48ZM1019.46 48.18C1021.38 48.18 1023.05 46.5751 1023.05 43.9351V43.905C1023.05 41.31 1021.38 39.7051 1019.45 39.7051C1018.23 39.7051 1017.54 40.29 1016.99 40.965V37.05H1014.14V48H1016.99V47.01C1017.51 47.625 1018.23 48.18 1019.46 48.18ZM1018.58 45.795C1017.66 45.795 1016.93 45.0301 1016.93 43.9501V43.92C1016.93 42.855 1017.66 42.09 1018.58 42.09C1019.51 42.09 1020.24 42.855 1020.24 43.92V43.9501C1020.24 45.0451 1019.51 45.795 1018.58 45.795ZM1024.27 39.1501H1027.24V37.05H1024.27V39.1501ZM1024.33 48H1027.18V39.885H1024.33V48ZM1031.09 48.18C1032.16 48.18 1032.92 47.775 1033.48 47.16V48H1036.3V43.335C1036.3 42.195 1036.04 41.3551 1035.43 40.7551C1034.78 40.1101 1033.79 39.765 1032.34 39.765C1030.94 39.765 1029.97 40.0201 1029.05 40.3951L1029.64 42.405C1030.36 42.12 1031.02 41.9551 1031.87 41.9551C1032.97 41.9551 1033.49 42.4351 1033.49 43.2751V43.41C1033.03 43.245 1032.29 43.0951 1031.54 43.0951C1029.64 43.0951 1028.36 43.9651 1028.36 45.6451V45.675C1028.36 47.295 1029.55 48.18 1031.09 48.18ZM1032.11 46.3951C1031.53 46.3951 1031.11 46.065 1031.11 45.51V45.48C1031.11 44.88 1031.59 44.475 1032.41 44.475C1032.83 44.475 1033.24 44.5651 1033.52 44.6851V45.0601C1033.52 45.8701 1032.94 46.3951 1032.11 46.3951ZM1037.75 48H1040.6V45.48C1040.6 43.605 1041.44 42.75 1042.92 42.75H1043.16V39.75C1041.81 39.69 1041.06 40.4101 1040.6 41.5201V39.885H1037.75V48ZM1051.55 48.1651C1052.35 48.1651 1053.02 47.9851 1053.53 47.7001V45.465C1053.19 45.63 1052.83 45.7351 1052.45 45.7351C1051.93 45.7351 1051.67 45.495 1051.67 44.925V42.18H1053.56V39.885H1051.67V37.8301H1048.82V39.885H1047.86V42.18H1048.82V45.48C1048.82 47.415 1049.84 48.1651 1051.55 48.1651ZM1057.49 48.18C1058.64 48.18 1059.39 47.565 1059.92 46.89V48H1062.77V39.885H1059.92V44.28C1059.92 45.165 1059.41 45.6451 1058.73 45.6451C1058.04 45.6451 1057.58 45.165 1057.58 44.28V39.885H1054.73V45.195C1054.73 47.04 1055.76 48.18 1057.49 48.18ZM1067.52 48.18C1069.5 48.18 1070.83 47.25 1070.83 45.465V45.4351C1070.83 43.8601 1069.56 43.305 1067.95 42.855C1067.1 42.6 1066.63 42.45 1066.63 42.135V42.105C1066.63 41.88 1066.86 41.715 1067.29 41.715C1067.94 41.715 1068.85 42 1069.69 42.465L1070.67 40.6651C1069.74 40.0651 1068.51 39.7201 1067.32 39.7201C1065.45 39.7201 1064.07 40.68 1064.07 42.405V42.4351C1064.07 44.0701 1065.34 44.61 1066.95 45.03C1067.8 45.27 1068.25 45.4051 1068.25 45.7201V45.75C1068.25 46.035 1068.03 46.1851 1067.53 46.1851C1066.69 46.1851 1065.67 45.8701 1064.74 45.2551L1063.68 46.98C1064.8 47.79 1066.15 48.18 1067.52 48.18ZM1076.16 48H1079.01V45.48C1079.01 43.605 1079.85 42.75 1081.33 42.75H1081.57V39.75C1080.22 39.69 1079.47 40.4101 1079.01 41.5201V39.885H1076.16V48ZM1086.45 48.195C1088.07 48.195 1089.19 47.535 1089.97 46.545L1088.4 45.2401C1087.81 45.8101 1087.27 46.065 1086.6 46.065C1085.71 46.065 1085.07 45.615 1084.84 44.73H1090.27C1090.29 44.535 1090.29 44.3251 1090.29 44.1451C1090.29 41.7601 1089 39.7051 1086.19 39.7051C1083.79 39.7051 1082.1 41.5801 1082.1 43.9501V43.98C1082.1 46.5 1083.9 48.195 1086.45 48.195ZM1084.8 43.2751C1084.95 42.3901 1085.46 41.805 1086.21 41.805C1086.99 41.805 1087.51 42.3751 1087.62 43.2751H1084.8ZM1095.5 50.43C1097.19 50.43 1098.33 50.0251 1099.07 49.2901C1099.79 48.5701 1100.12 47.535 1100.12 46.05V39.885H1097.27V40.8451C1096.65 40.2001 1095.93 39.7051 1094.72 39.7051C1092.84 39.7051 1091.21 41.1451 1091.21 43.4851V43.515C1091.21 45.84 1092.81 47.28 1094.81 47.28C1095.99 47.28 1096.74 46.725 1097.31 46.065V46.3801C1097.31 47.6701 1096.61 48.375 1095.18 48.375C1094.09 48.375 1093.22 48.0901 1092.35 47.6101L1091.43 49.5C1092.6 50.1 1093.92 50.43 1095.5 50.43ZM1095.66 45.09C1094.69 45.09 1094 44.43 1094 43.53V43.5C1094 42.6 1094.69 41.925 1095.66 41.925C1096.62 41.925 1097.31 42.5851 1097.31 43.4851V43.515C1097.31 44.415 1096.62 45.09 1095.66 45.09ZM1103.97 48.18C1105.04 48.18 1105.8 47.775 1106.36 47.16V48H1109.18V43.335C1109.18 42.195 1108.92 41.3551 1108.31 40.7551C1107.66 40.1101 1106.67 39.765 1105.22 39.765C1103.82 39.765 1102.85 40.0201 1101.93 40.3951L1102.52 42.405C1103.24 42.12 1103.9 41.9551 1104.75 41.9551C1105.85 41.9551 1106.37 42.4351 1106.37 43.2751V43.41C1105.91 43.245 1105.17 43.0951 1104.42 43.0951C1102.52 43.0951 1101.24 43.9651 1101.24 45.6451V45.675C1101.24 47.295 1102.43 48.18 1103.97 48.18ZM1104.99 46.3951C1104.41 46.3951 1103.99 46.065 1103.99 45.51V45.48C1103.99 44.88 1104.47 44.475 1105.29 44.475C1105.71 44.475 1106.12 44.5651 1106.4 44.6851V45.0601C1106.4 45.8701 1105.82 46.3951 1104.99 46.3951ZM1110.69 48H1113.54V37.05H1110.69V48ZM1119.26 48.195C1121.87 48.195 1123.76 46.2601 1123.76 43.9501V43.92C1123.76 41.61 1121.89 39.7051 1119.29 39.7051C1116.68 39.7051 1114.79 41.6401 1114.79 43.9501V43.98C1114.79 46.29 1116.67 48.195 1119.26 48.195ZM1119.29 45.78C1118.29 45.78 1117.57 44.9401 1117.57 43.9501V43.92C1117.57 42.945 1118.23 42.12 1119.26 42.12C1120.27 42.12 1120.99 42.9601 1120.99 43.9501V43.98C1120.99 44.955 1120.33 45.78 1119.29 45.78ZM1128.16 48.18C1130.14 48.18 1131.48 47.25 1131.48 45.465V45.4351C1131.48 43.8601 1130.2 43.305 1128.6 42.855C1127.74 42.6 1127.28 42.45 1127.28 42.135V42.105C1127.28 41.88 1127.5 41.715 1127.94 41.715C1128.58 41.715 1129.5 42 1130.34 42.465L1131.31 40.6651C1130.38 40.0651 1129.15 39.7201 1127.97 39.7201C1126.09 39.7201 1124.71 40.68 1124.71 42.405V42.4351C1124.71 44.0701 1125.99 44.61 1127.59 45.03C1128.45 45.27 1128.9 45.4051 1128.9 45.7201V45.75C1128.9 46.035 1128.67 46.1851 1128.18 46.1851C1127.34 46.1851 1126.32 45.8701 1125.39 45.2551L1124.32 46.98C1125.45 47.79 1126.8 48.18 1128.16 48.18Z" fill="white"/>
<path d="M126.244 12.511H131.606V7.82666H126.244V12.511ZM126 27.1152H131.849V24.773L130.279 14.1092H127.571L126 24.773V27.1152Z" fill="white"/>
<path d="M140.63 27.4459C142.823 27.4459 144.096 26.3712 145.098 25.1313V27.1152H150.243V7H145.098V14.0266C144.123 12.8968 142.823 11.8773 140.603 11.8773C137.136 11.8773 134.157 14.8257 134.157 19.6754V19.7305C134.157 24.4975 137.163 27.4459 140.63 27.4459ZM142.2 23.0646C140.548 23.0646 139.194 21.6593 139.194 19.6754V19.6202C139.194 17.6363 140.548 16.2585 142.2 16.2585C143.852 16.2585 145.179 17.6638 145.179 19.6202V19.6754C145.179 21.6593 143.852 23.0646 142.2 23.0646Z" fill="white"/>
<path d="M160.257 27.4733C163.182 27.4733 165.213 26.2609 166.621 24.4423L163.778 22.045C162.722 23.0921 161.747 23.5605 160.528 23.5605C158.93 23.5605 157.766 22.7339 157.36 21.1081H167.163C167.19 20.7499 167.19 20.3641 167.19 20.0335C167.19 15.6522 164.861 11.8772 159.797 11.8772C155.464 11.8772 152.404 15.3215 152.404 19.6753V19.7304C152.404 24.3596 155.654 27.4733 160.257 27.4733ZM157.279 18.4353C157.549 16.8095 158.47 15.7349 159.824 15.7349C161.232 15.7349 162.18 16.782 162.37 18.4353H157.279Z" fill="white"/>
<path d="M175.219 27.4459C178.794 27.4459 181.204 25.7375 181.204 22.4584V22.4033C181.204 19.51 178.902 18.4905 176.004 17.6638C174.461 17.1954 173.621 16.9198 173.621 16.3412V16.2861C173.621 15.8727 174.027 15.5696 174.813 15.5696C175.977 15.5696 177.629 16.0932 179.146 16.9474L180.906 13.6408C179.227 12.5386 177.006 11.9048 174.867 11.9048C171.482 11.9048 168.99 13.6683 168.99 16.8372V16.8923C168.99 19.8958 171.292 20.8878 174.19 21.6593C175.733 22.1002 176.546 22.3482 176.546 22.9269V22.982C176.546 23.5055 176.14 23.7811 175.246 23.7811C173.729 23.7811 171.888 23.2024 170.209 22.0726L168.286 25.2415C170.317 26.7295 172.754 27.4459 175.219 27.4459Z" fill="white"/>
<path d="M183.307 31.5239H188.453V25.2965C189.4 26.4263 190.7 27.4458 192.921 27.4458C196.387 27.4458 199.393 24.4974 199.393 19.6477V19.5926C199.393 14.8256 196.387 11.8772 192.894 11.8772C190.7 11.8772 189.455 12.9518 188.453 14.1918V12.2078H183.307V31.5239ZM191.323 23.0645C189.671 23.0645 188.344 21.6592 188.344 19.6753V19.6201C188.344 17.6637 189.671 16.2584 191.323 16.2584C193.002 16.2584 194.329 17.6637 194.329 19.6201V19.6753C194.329 21.6868 193.002 23.0645 191.323 23.0645Z" fill="white"/>
<path d="M205.806 27.4459C207.728 27.4459 209.109 26.7019 210.111 25.5721V27.1152H215.203V18.5456C215.203 16.4514 214.742 14.9083 213.632 13.8061C212.467 12.6212 210.68 11.9875 208.053 11.9875C205.535 11.9875 203.774 12.4559 202.123 13.1448L203.179 16.8372C204.479 16.3136 205.67 16.0105 207.214 16.0105C209.191 16.0105 210.139 16.8923 210.139 18.4354V18.6834C209.299 18.3803 207.972 18.1047 206.618 18.1047C203.179 18.1047 200.877 19.7029 200.877 22.7891V22.8442C200.877 25.8201 203.016 27.4459 205.806 27.4459ZM207.647 24.1668C206.591 24.1668 205.833 23.5606 205.833 22.5411V22.486C205.833 21.3838 206.699 20.6398 208.189 20.6398C208.947 20.6398 209.678 20.8051 210.193 21.0255V21.7144C210.193 23.2024 209.136 24.1668 207.647 24.1668Z" fill="white"/>
<path d="M224.888 27.4734C228.11 27.4734 230.06 26.0957 231.414 24.0566L227.975 21.5215C227.162 22.486 226.377 23.0646 225.159 23.0646C223.425 23.0646 222.234 21.6042 222.234 19.6754V19.6202C222.234 17.8016 223.452 16.3136 225.104 16.3136C226.35 16.3136 227.135 16.8923 227.84 17.8843L231.333 15.239C230.087 13.2275 228.083 11.9048 225.077 11.9048C220.446 11.9048 217.224 15.4594 217.224 19.6754V19.7305C217.224 23.9464 220.473 27.4734 224.888 27.4734Z" fill="white"/>
<path d="M233.238 27.1152H238.383V19.0416C238.383 17.4158 239.304 16.5341 240.55 16.5341C241.768 16.5341 242.608 17.4158 242.608 19.0416V27.1152H247.753V17.3607C247.753 13.9714 245.885 11.8773 242.77 11.8773C240.685 11.8773 239.331 13.007 238.383 14.247V7H233.238V27.1152Z" fill="white"/>
<path d="M257.876 27.4733C262.588 27.4733 266 23.9187 266 19.6753V19.6201C266 15.3767 262.615 11.8772 257.93 11.8772C253.218 11.8772 249.806 15.4318 249.806 19.6753V19.7304C249.806 23.9738 253.191 27.4733 257.876 27.4733ZM257.93 23.037C256.115 23.037 254.816 21.4939 254.816 19.6753V19.6201C254.816 17.8291 256.007 16.3135 257.876 16.3135C259.69 16.3135 260.99 17.8566 260.99 19.6753V19.7304C260.99 21.5214 259.798 23.037 257.93 23.037Z" fill="white"/>
<path d="M148.612 61.9999C152.692 61.9999 155.436 61.0079 157.206 59.2076C158.939 57.4441 159.733 54.909 159.733 51.2718V36.1716H152.873V38.5229C151.392 36.9431 149.659 35.7307 146.734 35.7307C142.221 35.7307 138.285 39.2577 138.285 44.9892V45.0627C138.285 50.7574 142.149 54.2845 146.951 54.2845C149.804 54.2845 151.609 52.9251 152.981 51.3085V52.0801C152.981 55.2397 151.284 56.9665 147.854 56.9665C145.218 56.9665 143.124 56.2684 141.029 55.0927L138.827 59.722C141.643 61.1916 144.821 61.9999 148.612 61.9999ZM149.009 48.9204C146.662 48.9204 145.001 47.3038 145.001 45.0994V45.0259C145.001 42.8215 146.662 41.1682 149.009 41.1682C151.32 41.1682 152.981 42.7848 152.981 44.9892V45.0627C152.981 47.2671 151.32 48.9204 149.009 48.9204Z" fill="white"/>
<path d="M163.408 56.0481H170.269V49.8758C170.269 45.2832 172.291 43.189 175.866 43.189H176.443V35.841C173.194 35.6941 171.388 37.4576 170.269 40.1763V36.1717H163.408V56.0481Z" fill="white"/>
<path d="M183.533 56.4889C186.097 56.4889 187.938 55.4969 189.274 53.9905V56.048H196.062V44.6218C196.062 41.8296 195.449 39.7721 193.968 38.3025C192.415 36.7227 190.032 35.8777 186.53 35.8777C183.172 35.8777 180.825 36.5022 178.622 37.4207L180.03 42.3439C181.764 41.6459 183.352 41.2417 185.41 41.2417C188.046 41.2417 189.31 42.4174 189.31 44.4748V44.8055C188.191 44.4014 186.422 44.034 184.616 44.034C180.03 44.034 176.961 46.1649 176.961 50.2798V50.3533C176.961 54.3212 179.814 56.4889 183.533 56.4889ZM185.988 52.1168C184.58 52.1168 183.569 51.3085 183.569 49.9491V49.8757C183.569 48.406 184.724 47.4141 186.71 47.4141C187.721 47.4141 188.696 47.6345 189.382 47.9284V48.8469C189.382 50.8309 187.974 52.1168 185.988 52.1168Z" fill="white"/>
<path d="M207.138 56.4521C209.052 56.4521 210.677 56.0113 211.905 55.3132V49.8389C211.074 50.2431 210.208 50.5002 209.305 50.5002C208.041 50.5002 207.427 49.9124 207.427 48.5163V41.7928H211.977V36.1716H207.427V31.1382H200.567V36.1716H198.256V41.7928H200.567V49.8757C200.567 54.6151 203.022 56.4521 207.138 56.4521Z" fill="white"/>
<path d="M214.926 34.3714H222.075V29.2278H214.926V34.3714ZM215.07 56.0481H221.931V36.1717H215.07V56.0481Z" fill="white"/>
<path d="M233.514 56.4891C238.28 56.4891 241.494 54.2112 241.494 49.8391V49.7656C241.494 45.9079 238.425 44.5485 234.561 43.4463C232.503 42.8217 231.384 42.4543 231.384 41.6828V41.6093C231.384 41.0582 231.925 40.6541 232.973 40.6541C234.525 40.6541 236.728 41.3521 238.75 42.4911L241.097 38.0823C238.858 36.6127 235.897 35.7676 233.045 35.7676C228.531 35.7676 225.209 38.119 225.209 42.3441V42.4176C225.209 46.4223 228.279 47.7449 232.142 48.7736C234.2 49.3615 235.283 49.6921 235.283 50.4637V50.5372C235.283 51.2352 234.742 51.6026 233.55 51.6026C231.528 51.6026 229.073 50.8311 226.834 49.3247L224.271 53.5499C226.979 55.5338 230.228 56.4891 233.514 56.4891Z" fill="white"/>
<path d="M246.501 47.6714H250.112L252.206 33.453V30.3301H244.407V33.453L246.501 47.6714ZM244.732 56.0482H251.881V49.8024H244.732V56.0482Z" fill="white"/>
<path d="M56.2968 52.8623H48.5801C49.0945 49.9471 49.609 47.0319 50.1235 43.9452H46.0078V41.0299H57.8402V43.9452H53.5531C53.3816 43.9452 53.2101 44.1166 53.2101 44.1166C52.8672 46.003 52.5242 47.8893 52.1813 49.7756H56.4684C57.6687 46.003 60.0695 43.9452 64.0136 43.9452C67.1003 43.9452 70.0156 46.003 71.0445 49.7756H88.5358C88.8788 49.7756 88.8787 49.6041 89.0502 49.4326C89.9076 46.1744 92.4799 44.1166 95.9096 43.9452C99.1677 43.7737 102.426 46.003 103.283 49.4326C103.455 49.7756 103.455 49.9471 103.969 49.9471H106.713C106.884 48.5752 107.056 47.3748 107.227 46.003C107.399 44.1166 107.742 42.2303 107.913 40.5155C107.913 40.1725 107.913 40.001 107.742 39.8296C106.713 38.8007 105.684 37.7718 104.655 36.7429C104.484 36.5714 104.312 36.3999 104.141 36.3999C100.883 35.5425 97.4529 34.6851 94.1947 33.8276C93.3373 33.6562 92.6513 33.4847 91.7939 33.1417C92.3084 29.1976 92.8228 25.4249 93.5087 21.4808C94.5376 21.6523 95.3951 21.8238 96.424 21.8238C96.2525 23.1957 96.081 24.5675 95.9096 25.7679C95.7381 27.3113 95.3951 28.8546 95.2236 30.398C95.2236 30.5695 95.2236 30.7409 95.5666 30.9124C98.1388 31.5984 100.711 32.1128 103.455 32.7987C102.254 27.9972 101.054 23.3671 99.8537 18.5656H57.8402C57.6687 19.0801 57.6687 19.766 57.4972 20.2804C56.4683 20.109 55.6109 19.9375 54.582 19.766C54.582 19.2515 54.7535 18.9086 54.7535 18.3941C54.925 17.5367 55.0965 16.6793 55.0965 15.9934C55.0965 15.8219 55.2679 15.6504 55.4394 15.6504H101.397C101.911 15.6504 102.083 15.8219 102.083 16.1648C103.455 21.9953 104.998 27.6542 106.37 33.4847L106.884 34.5136C108.256 35.8854 109.628 37.0858 110.829 38.4577C111 38.6292 111 38.9721 111 39.1436C110.829 40.8585 110.657 42.5733 110.314 44.2881C109.971 46.8604 109.628 49.4326 109.285 52.0049C109.285 52.5193 109.114 52.5193 108.599 52.5193H103.626C103.283 52.5193 103.283 52.6908 103.112 52.8623C102.254 55.7775 100.197 57.6638 97.2814 58.1783C93.3373 58.8642 89.9076 56.4635 88.8787 52.8623C88.7072 52.3478 88.5358 52.3478 88.1928 52.3478H71.3874C71.0445 52.3478 70.873 52.3478 70.7015 52.8623C69.8441 55.949 66.9288 58.1783 63.8421 58.3498C60.241 58.3498 57.3258 56.1205 56.4684 52.8623C56.4684 53.2053 56.2968 53.0338 56.2968 52.8623ZM96.081 46.8604C93.6802 46.8604 91.6225 48.9182 91.6225 51.319C91.6225 53.7197 93.6802 55.7775 96.081 55.7775C98.4818 55.7775 100.54 53.8912 100.54 51.319C100.54 48.9182 98.4818 46.8604 96.081 46.8604ZM63.6707 46.8604C61.2699 46.8604 59.2121 48.7467 59.2121 51.319C59.2121 53.7197 61.2699 55.7775 63.6707 55.7775C66.0715 55.7775 68.1292 53.7197 68.1292 51.319C67.9577 48.9182 66.0715 46.8604 63.6707 46.8604Z" fill="white"/>
<path d="M67.2718 23.1978V26.113H66.7574C61.4414 26.113 70.0155 26.113 64.6995 26.113H56.6398C56.2968 26.113 56.1254 26.2845 56.1254 26.6274C55.9539 27.4848 55.7824 28.3423 55.6109 29.3712C54.582 29.1997 53.7246 29.0282 52.6957 28.8567C52.8672 27.9993 53.0387 27.1419 53.2101 26.113H46.0078V23.1978H67.2718Z" fill="white"/>
<path d="M45.8359 35.0246V32.1094H60.069V35.0246H59.3832C54.7531 35.0246 59.5547 35.0246 55.0961 35.0246C54.7531 35.0246 54.5816 35.1961 54.5816 35.539C54.4101 36.3965 54.2386 37.2539 54.0671 38.2828L51.4949 37.7683C51.1519 37.7683 51.3234 37.5968 51.3234 37.2539C51.4949 36.5679 51.6664 35.882 51.6664 35.0246H45.8359Z" fill="white"/>
<path d="M88.5355 42.2324C88.5355 42.0609 88.364 42.0609 88.5355 42.2324C86.8207 41.718 85.2773 40.6891 84.2484 39.4887C82.3621 37.6024 80.8187 35.0301 80.3042 34.0012C80.1327 33.6583 80.3042 33.4868 80.3042 33.4868C83.3909 32.2864 83.9054 29.1997 83.9054 28.3423C83.9054 24.3981 80.1327 23.1978 76.8745 23.1978C75.6742 23.1978 75.1597 23.3692 73.7879 23.3692C72.2445 23.3692 71.3871 23.1978 71.0442 23.1978C70.8727 23.1978 70.7012 23.3692 70.7012 23.5407C70.7012 24.5696 72.9304 22.8548 72.9304 26.113V38.8028C72.9304 41.718 70.8726 40.8606 70.8726 41.5465C70.8726 41.718 71.2156 41.8895 71.2156 41.8895C71.9015 41.8895 72.759 41.718 74.1308 41.718C75.6742 41.718 76.0172 41.8895 77.0461 41.8895C77.732 41.8895 77.732 41.718 77.732 41.5465C77.732 40.6891 74.9883 42.0609 74.9883 38.2883V24.9126C74.9883 24.0552 75.5027 24.0552 76.3601 24.0552C79.4468 24.0552 81.8476 25.77 81.8476 28.8567C81.8476 31.086 80.3042 33.1438 77.5605 33.1438H76.5317C76.3602 33.1438 76.1887 33.1438 76.1887 33.3153C76.1887 33.4868 76.3602 33.6583 76.5317 33.8297C76.8746 34.0012 77.5606 34.0012 78.2465 35.2016C79.9613 38.1168 82.0191 42.5754 86.6491 42.5754C88.7069 42.5754 88.5355 42.4039 88.5355 42.2324Z" fill="white"/>
<path d="M706.786 34.7286C703.541 34.3965 700.292 34.1953 697.048 34.0502C693.812 33.9099 690.573 33.8257 687.333 33.807C688.672 32.4361 689.987 31.0419 691.289 29.629C692.787 27.9868 694.262 26.3259 695.671 24.5948C695.732 24.52 695.723 24.403 695.643 24.3422C695.578 24.2907 695.484 24.2907 695.418 24.3422C693.686 25.7504 692.024 27.2242 690.381 28.7213C688.967 30.0173 687.572 31.3367 686.2 32.6747C686.176 29.4325 686.092 26.1949 685.952 22.9526C685.802 19.7151 685.605 16.4728 685.273 13.2352C685.259 13.0902 685.128 12.9872 684.983 13.0013C684.861 13.0153 684.762 13.1136 684.748 13.2352C684.416 16.4728 684.219 19.7151 684.07 22.9526C683.929 26.1949 683.845 29.4325 683.821 32.6747C682.445 31.332 681.05 30.0126 679.636 28.7167C677.997 27.2242 676.335 25.7504 674.608 24.3469C674.533 24.286 674.42 24.2954 674.355 24.3702C674.299 24.4357 674.299 24.534 674.355 24.5995C675.759 26.3259 677.234 27.9868 678.728 29.6243C680.024 31.0419 681.349 32.4361 682.688 33.8116C679.444 33.835 676.204 33.9192 672.96 34.0596C669.72 34.2093 666.475 34.4058 663.235 34.738C663.09 34.752 662.987 34.883 663.001 35.0281C663.015 35.1497 663.114 35.248 663.235 35.262C666.475 35.5942 669.72 35.7907 672.96 35.9404C676.204 36.0808 679.444 36.165 682.688 36.1884C681.345 37.5639 680.024 38.9581 678.728 40.3757C677.234 42.0132 675.759 43.6741 674.355 45.4005C674.294 45.4754 674.303 45.5923 674.383 45.6531C674.448 45.7046 674.542 45.7046 674.608 45.6531C676.335 44.2496 677.997 42.7758 679.636 41.2833C681.054 39.9874 682.45 38.668 683.821 37.3253C683.845 40.5628 683.929 43.7957 684.065 47.0333C684.215 50.2756 684.411 53.5225 684.744 56.7648C684.758 56.9098 684.889 57.0128 685.034 56.9987C685.156 56.9847 685.254 56.8864 685.268 56.7648C685.601 53.5225 685.802 50.2756 685.947 47.0333C686.087 43.7957 686.172 40.5628 686.19 37.3253C687.562 38.6633 688.957 39.978 690.371 41.2787C692.015 42.7758 693.677 44.2496 695.409 45.6578C695.484 45.7186 695.601 45.7093 695.662 45.6298C695.713 45.5643 695.713 45.4707 695.662 45.4052C694.253 43.6741 692.778 42.0132 691.28 40.371C689.983 38.9581 688.667 37.5639 687.323 36.193C690.559 36.1696 693.798 36.0854 697.038 35.9498C700.283 35.8 703.532 35.6035 706.777 35.2714C706.922 35.248 707.02 35.117 706.997 34.9719C706.978 34.8596 706.889 34.7661 706.777 34.752L706.786 34.7286Z" fill="#6D23C2"/>
</svg>
